solid AssimpScene
 facet normal 0 0.999027 0.0441081
  outer loop
  vertex 22.7726 64.2588 46.7389
  vertex 24.1559 64.2588 46.7389
  vertex 24.1559 64.4241 42.9944
  endloop
 endfacet

 facet normal 0 0.999027 0.0441081
  outer loop
  vertex 24.1559 64.4241 42.9944
  vertex 22.7726 64.4241 42.9944
  vertex 22.7726 64.2588 46.7389
  endloop
 endfacet

 facet normal 0 0.75505 -0.655667
  outer loop
  vertex 22.7726 64.4241 42.9944
  vertex 24.1559 64.4241 42.9944
  vertex 24.1559 62.4655 40.739
  endloop
 endfacet

 facet normal 0 0.75505 -0.655667
  outer loop
  vertex 24.1559 62.4655 40.739
  vertex 22.7726 62.4655 40.739
  vertex 22.7726 64.4241 42.9944
  endloop
 endfacet

 facet normal 0 -0.18574 -0.982599
  outer loop
  vertex 22.7726 62.4655 40.739
  vertex 24.1559 62.4655 40.739
  vertex 24.1559 59.5304 41.2938
  endloop
 endfacet

 facet normal 0 -0.18574 -0.982599
  outer loop
  vertex 24.1559 59.5304 41.2938
  vertex 22.7726 59.5304 41.2938
  vertex 22.7726 62.4655 40.739
  endloop
 endfacet

 facet normal 0 -0.81109 -0.584921
  outer loop
  vertex 22.7726 59.5304 41.2938
  vertex 24.1559 59.5304 41.2938
  vertex 24.1559 57.338 44.3339
  endloop
 endfacet

 facet normal 0 -0.81109 -0.584921
  outer loop
  vertex 24.1559 57.338 44.3339
  vertex 22.7726 57.338 44.3339
  vertex 22.7726 59.5304 41.2938
  endloop
 endfacet

 facet normal 0 -0.999027 -0.0441079
  outer loop
  vertex 22.7726 57.338 44.3339
  vertex 24.1559 57.338 44.3339
  vertex 24.1559 57.1727 48.0784
  endloop
 endfacet

 facet normal 0 -0.999027 -0.0441079
  outer loop
  vertex 24.1559 57.1727 48.0784
  vertex 22.7726 57.1727 48.0784
  vertex 22.7726 57.338 44.3339
  endloop
 endfacet

 facet normal 0 -0.75505 0.655667
  outer loop
  vertex 22.7726 57.1727 48.0784
  vertex 24.1559 57.1727 48.0784
  vertex 24.1559 59.1312 50.3339
  endloop
 endfacet

 facet normal 0 -0.75505 0.655667
  outer loop
  vertex 24.1559 59.1312 50.3339
  vertex 22.7726 59.1312 50.3339
  vertex 22.7726 57.1727 48.0784
  endloop
 endfacet

 facet normal 1 0 0
  outer loop
  vertex 24.1559 62.4655 40.739
  vertex 24.1559 64.4241 42.9944
  vertex 24.1559 64.2588 46.7389
  endloop
 endfacet

 facet normal 1 0 0
  outer loop
  vertex 24.1559 64.2588 46.7389
  vertex 24.1559 62.0664 49.779
  vertex 24.1559 59.1312 50.3339
  endloop
 endfacet

 facet normal 1 0 0
  outer loop
  vertex 24.1559 59.1312 50.3339
  vertex 24.1559 57.1727 48.0784
  vertex 24.1559 57.338 44.3339
  endloop
 endfacet

 facet normal 1 0 0
  outer loop
  vertex 24.1559 57.338 44.3339
  vertex 24.1559 59.5304 41.2938
  vertex 24.1559 62.4655 40.739
  endloop
 endfacet

 facet normal 1 0 0
  outer loop
  vertex 24.1559 62.4655 40.739
  vertex 24.1559 64.2588 46.7389
  vertex 24.1559 59.1312 50.3339
  endloop
 endfacet

 facet normal 1 0 0
  outer loop
  vertex 24.1559 59.1312 50.3339
  vertex 24.1559 57.338 44.3339
  vertex 24.1559 62.4655 40.739
  endloop
 endfacet

 facet normal 0 0.81109 0.584921
  outer loop
  vertex 24.1559 64.2588 46.7389
  vertex 22.7726 64.2588 46.7389
  vertex 22.7726 62.0664 49.779
  endloop
 endfacet

 facet normal 0 0.81109 0.584921
  outer loop
  vertex 22.7726 62.0664 49.779
  vertex 24.1559 62.0664 49.779
  vertex 24.1559 64.2588 46.7389
  endloop
 endfacet

 facet normal 0 0.185741 0.982599
  outer loop
  vertex 22.7726 59.1312 50.3339
  vertex 24.1559 59.1312 50.3339
  vertex 24.1559 62.0664 49.779
  endloop
 endfacet

 facet normal 0 0.185741 0.982599
  outer loop
  vertex 24.1559 62.0664 49.779
  vertex 22.7726 62.0664 49.779
  vertex 22.7726 59.1312 50.3339
  endloop
 endfacet

 facet normal -1 -9.30675e-07 -4.10903e-08
  outer loop
  vertex 22.7726 62.0664 49.779
  vertex 22.7726 64.2588 46.7389
  vertex 22.7726 64.4241 42.9944
  endloop
 endfacet

 facet normal -1 -3.10225e-07 -1.36968e-08
  outer loop
  vertex 22.7726 64.4241 42.9944
  vertex 22.7726 62.4655 40.739
  vertex 22.7726 59.5304 41.2938
  endloop
 endfacet

 facet normal -1 5.03731e-07 3.63267e-07
  outer loop
  vertex 22.7726 59.5304 41.2938
  vertex 22.7726 57.338 44.3339
  vertex 22.7726 57.1727 48.0784
  endloop
 endfacet

 facet normal -1 -5.83598e-08 1.67937e-07
  outer loop
  vertex 22.7726 57.1727 48.0784
  vertex 22.7726 59.1312 50.3339
  vertex 22.7726 62.0664 49.779
  endloop
 endfacet

 facet normal -1 -6.2045e-07 -2.73935e-08
  outer loop
  vertex 22.7726 62.0664 49.779
  vertex 22.7726 64.4241 42.9944
  vertex 22.7726 59.5304 41.2938
  endloop
 endfacet

 facet normal -1 -5.83598e-08 1.67937e-07
  outer loop
  vertex 22.7726 59.5304 41.2938
  vertex 22.7726 57.1727 48.0784
  vertex 22.7726 62.0664 49.779
  endloop
 endfacet

 facet normal 0 0.84745 -0.530875
  outer loop
  vertex 22.7726 73.5814 44.5618
  vertex 24.1559 73.5814 44.5618
  vertex 24.1559 71.5916 41.3854
  endloop
 endfacet

 facet normal 1.95575e-07 0.84745 -0.530875
  outer loop
  vertex 24.1559 71.5916 41.3854
  vertex 22.7726 71.5916 41.3854
  vertex 22.7726 73.5814 44.5618
  endloop
 endfacet

 facet normal 1.72612e-07 0.249316 -0.968422
  outer loop
  vertex 22.7726 71.5916 41.3854
  vertex 24.1559 71.5916 41.3854
  vertex 24.1559 68.6987 40.6406
  endloop
 endfacet

 facet normal 1.43843e-07 0.249316 -0.968422
  outer loop
  vertex 24.1559 68.6987 40.6406
  vertex 22.7726 68.6987 40.6406
  vertex 22.7726 71.5916 41.3854
  endloop
 endfacet

 facet normal -2.46045e-07 -0.710762 -0.703433
  outer loop
  vertex 22.7726 68.6987 40.6406
  vertex 24.1559 68.6987 40.6406
  vertex 24.1559 66.5975 42.7638
  endloop
 endfacet

 facet normal -1.6403e-07 -0.710762 -0.703433
  outer loop
  vertex 24.1559 66.5975 42.7638
  vertex 22.7726 66.5975 42.7638
  vertex 22.7726 68.6987 40.6406
  endloop
 endfacet

 facet normal 0 -0.999779 -0.0210266
  outer loop
  vertex 22.7726 66.5975 42.7638
  vertex 24.1559 66.5975 42.7638
  vertex 24.1559 66.5187 46.5111
  endloop
 endfacet

 facet normal 0 -0.999779 -0.0210266
  outer loop
  vertex 24.1559 66.5187 46.5111
  vertex 22.7726 66.5187 46.5111
  vertex 22.7726 66.5975 42.7638
  endloop
 endfacet

 facet normal 0 -0.84745 0.530875
  outer loop
  vertex 22.7726 66.5187 46.5111
  vertex 24.1559 66.5187 46.5111
  vertex 24.1559 68.5085 49.6875
  endloop
 endfacet

 facet normal 0 -0.84745 0.530875
  outer loop
  vertex 24.1559 68.5085 49.6875
  vertex 22.7726 68.5085 49.6875
  vertex 22.7726 66.5187 46.5111
  endloop
 endfacet

 facet normal 0 -0.249319 0.968422
  outer loop
  vertex 22.7726 68.5085 49.6875
  vertex 24.1559 68.5085 49.6875
  vertex 24.1559 71.4013 50.4322
  endloop
 endfacet

 facet normal 0 -0.249319 0.968422
  outer loop
  vertex 24.1559 71.4013 50.4322
  vertex 22.7726 71.4013 50.4322
  vertex 22.7726 68.5085 49.6875
  endloop
 endfacet

 facet normal 1 0 0
  outer loop
  vertex 24.1559 68.6987 40.6406
  vertex 24.1559 71.5916 41.3854
  vertex 24.1559 73.5814 44.5618
  endloop
 endfacet

 facet normal 1 0 0
  outer loop
  vertex 24.1559 73.5814 44.5618
  vertex 24.1559 73.5025 48.3091
  vertex 24.1559 71.4013 50.4322
  endloop
 endfacet

 facet normal 1 0 0
  outer loop
  vertex 24.1559 71.4013 50.4322
  vertex 24.1559 68.5085 49.6875
  vertex 24.1559 66.5187 46.5111
  endloop
 endfacet

 facet normal 1 0 0
  outer loop
  vertex 24.1559 66.5187 46.5111
  vertex 24.1559 66.5975 42.7638
  vertex 24.1559 68.6987 40.6406
  endloop
 endfacet

 facet normal 1 0 0
  outer loop
  vertex 24.1559 68.6987 40.6406
  vertex 24.1559 73.5814 44.5618
  vertex 24.1559 71.4013 50.4322
  endloop
 endfacet

 facet normal 1 0 0
  outer loop
  vertex 24.1559 71.4013 50.4322
  vertex 24.1559 66.5187 46.5111
  vertex 24.1559 68.6987 40.6406
  endloop
 endfacet

 facet normal 0 0.999779 0.0210264
  outer loop
  vertex 22.7726 73.5025 48.3091
  vertex 24.1559 73.5025 48.3091
  vertex 24.1559 73.5814 44.5618
  endloop
 endfacet

 facet normal 0 0.999779 0.0210264
  outer loop
  vertex 24.1559 73.5814 44.5618
  vertex 22.7726 73.5814 44.5618
  vertex 22.7726 73.5025 48.3091
  endloop
 endfacet

 facet normal 0 0.710762 0.703433
  outer loop
  vertex 22.7726 71.4013 50.4322
  vertex 24.1559 71.4013 50.4322
  vertex 24.1559 73.5025 48.3091
  endloop
 endfacet

 facet normal 0 0.710762 0.703433
  outer loop
  vertex 24.1559 73.5025 48.3091
  vertex 22.7726 73.5025 48.3091
  vertex 22.7726 71.4013 50.4322
  endloop
 endfacet

 facet normal -1 -7.89469e-07 4.94553e-07
  outer loop
  vertex 22.7726 73.5025 48.3091
  vertex 22.7726 73.5814 44.5618
  vertex 22.7726 71.5916 41.3854
  endloop
 endfacet

 facet normal -1 -2.63156e-07 1.64851e-07
  outer loop
  vertex 22.7726 71.5916 41.3854
  vertex 22.7726 68.6987 40.6406
  vertex 22.7726 66.5975 42.7638
  endloop
 endfacet

 facet normal -1 6.20916e-07 1.30586e-08
  outer loop
  vertex 22.7726 66.5975 42.7638
  vertex 22.7726 66.5187 46.5111
  vertex 22.7726 68.5085 49.6875
  endloop
 endfacet

 facet normal -1 4.73019e-08 1.7138e-07
  outer loop
  vertex 22.7726 68.5085 49.6875
  vertex 22.7726 71.4013 50.4322
  vertex 22.7726 73.5025 48.3091
  endloop
 endfacet

 facet normal -1 -5.26312e-07 3.29702e-07
  outer loop
  vertex 22.7726 73.5025 48.3091
  vertex 22.7726 71.5916 41.3854
  vertex 22.7726 66.5975 42.7638
  endloop
 endfacet

 facet normal -1 4.73019e-08 1.7138e-07
  outer loop
  vertex 22.7726 66.5975 42.7638
  vertex 22.7726 68.5085 49.6875
  vertex 22.7726 73.5025 48.3091
  endloop
 endfacet

 facet normal 0.632605 -0.702636 0.325752
  outer loop
  vertex 33.3016 54.5169 2.66444
  vertex 33.772 53.9844 0.602502
  vertex 35.5779 55.6428 0.672487
  endloop
 endfacet

 facet normal 0.708611 -0.373435 0.598679
  outer loop
  vertex 35.5779 55.6428 0.672487
  vertex 34.0771 55.6428 2.44893
  vertex 33.3016 54.5169 2.66444
  endloop
 endfacet

 facet normal -0.0436759 -0.165564 -0.985231
  outer loop
  vertex 24.4695 57.2889 1.01696
  vertex 28.4741 58.0275 0.715308
  vertex 33.772 57.3012 0.602503
  endloop
 endfacet

 facet normal 0.0387235 2.43814e-07 -0.99925
  outer loop
  vertex 33.772 57.3012 0.602503
  vertex 35.5779 55.6428 0.672487
  vertex 33.772 53.9844 0.602502
  endloop
 endfacet

 facet normal -0.043676 0.165563 -0.985232
  outer loop
  vertex 33.772 53.9844 0.602502
  vertex 28.4741 53.2581 0.715307
  vertex 24.4695 53.9968 1.01696
  endloop
 endfacet

 facet normal 0.0326355 1.26394e-07 -0.999467
  outer loop
  vertex 24.4695 53.9968 1.01696
  vertex 22.6119 55.6428 0.956307
  vertex 24.4695 57.2889 1.01696
  endloop
 endfacet

 facet normal -0.0445091 3.3988e-07 -0.999009
  outer loop
  vertex 24.4695 57.2889 1.01696
  vertex 33.772 57.3012 0.602503
  vertex 33.772 53.9844 0.602502
  endloop
 endfacet

 facet normal -0.0445092 2.83658e-07 -0.999009
  outer loop
  vertex 33.772 53.9844 0.602502
  vertex 24.4695 53.9968 1.01696
  vertex 24.4695 57.2889 1.01696
  endloop
 endfacet

 facet normal -0.25273 -0.250767 0.934475
  outer loop
  vertex 22.6119 55.6428 0.956307
  vertex 24.4695 53.9968 1.01696
  vertex 29.5726 54.4739 2.52516
  endloop
 endfacet

 facet normal -0.242923 -0.163178 0.956222
  outer loop
  vertex 29.5726 54.4739 2.52516
  vertex 28.6858 55.6428 2.49935
  vertex 22.6119 55.6428 0.956307
  endloop
 endfacet

 facet normal 0.632604 0.702634 0.325756
  outer loop
  vertex 35.5779 55.6428 0.672487
  vertex 33.772 57.3012 0.602503
  vertex 33.3016 56.7687 2.66444
  endloop
 endfacet

 facet normal 0.708609 0.373441 0.598678
  outer loop
  vertex 33.3016 56.7687 2.66444
  vertex 34.0771 55.6428 2.44893
  vertex 35.5779 55.6428 0.672487
  endloop
 endfacet

 facet normal 0.232808 0.971205 0.0506171
  outer loop
  vertex 28.4741 58.0275 0.715308
  vertex 31.4842 57.1988 2.7722
  vertex 33.3016 56.7687 2.66444
  endloop
 endfacet

 facet normal 0.136302 0.951229 0.276741
  outer loop
  vertex 33.3016 56.7687 2.66444
  vertex 33.772 57.3012 0.602503
  vertex 28.4741 58.0275 0.715308
  endloop
 endfacet

 facet normal -0.117874 -0.849245 0.514673
  outer loop
  vertex 24.4695 53.9968 1.01696
  vertex 28.4741 53.2581 0.715307
  vertex 31.4842 54.0869 2.7722
  endloop
 endfacet

 facet normal -0.20725 -0.479239 0.852864
  outer loop
  vertex 31.4842 54.0869 2.7722
  vertex 29.5726 54.4739 2.52516
  vertex 24.4695 53.9968 1.01696
  endloop
 endfacet

 facet normal -0.117874 0.849245 0.514673
  outer loop
  vertex 31.4842 57.1988 2.7722
  vertex 28.4741 58.0275 0.715308
  vertex 24.4695 57.2889 1.01696
  endloop
 endfacet

 facet normal -0.207251 0.479236 0.852866
  outer loop
  vertex 24.4695 57.2889 1.01696
  vertex 29.5726 56.8117 2.52516
  vertex 31.4842 57.1988 2.7722
  endloop
 endfacet

 facet normal 0.136303 -0.951229 0.276739
  outer loop
  vertex 28.4741 53.2581 0.715307
  vertex 33.772 53.9844 0.602502
  vertex 33.3016 54.5169 2.66444
  endloop
 endfacet

 facet normal 0.232808 -0.971205 0.0506188
  outer loop
  vertex 33.3016 54.5169 2.66444
  vertex 31.4842 54.0869 2.7722
  vertex 28.4741 53.2581 0.715307
  endloop
 endfacet

 facet normal 0.19263 0.907581 -0.373083
  outer loop
  vertex 44.5093 58.3983 12.4154
  vertex 33.3016 56.7687 2.66444
  vertex 31.4842 57.1988 2.7722
  endloop
 endfacet

 facet normal 0.116465 0.954078 -0.275991
  outer loop
  vertex 31.4842 57.1988 2.7722
  vertex 38.2684 58.6681 10.7144
  vertex 44.5093 58.3983 12.4154
  endloop
 endfacet

 facet normal -0.249252 -0.967847 0.0338545
  outer loop
  vertex 31.4842 54.0869 2.7722
  vertex 38.2684 52.6175 10.7145
  vertex 35.063 53.4979 12.2823
  endloop
 endfacet

 facet normal -0.745908 -0.557836 0.363925
  outer loop
  vertex 29.5726 54.4739 2.52516
  vertex 35.063 53.4979 12.2823
  vertex 28.6858 55.6428 2.49935
  endloop
 endfacet

 facet normal -0.200238 0.979637 0.0146794
  outer loop
  vertex 31.4842 57.1988 2.7722
  vertex 29.5726 56.8117 2.52516
  vertex 35.0631 57.7878 12.2823
  endloop
 endfacet

 facet normal 0.19263 -0.907579 -0.373086
  outer loop
  vertex 31.4842 54.0869 2.7722
  vertex 33.3016 54.5169 2.66444
  vertex 44.5093 52.8873 12.4154
  endloop
 endfacet

 facet normal 0.116465 -0.954078 -0.275992
  outer loop
  vertex 44.5093 52.8873 12.4154
  vertex 38.2684 52.6175 10.7145
  vertex 31.4842 54.0869 2.7722
  endloop
 endfacet

 facet normal 0.527955 0.495621 -0.689655
  outer loop
  vertex 34.0771 55.6428 2.44893
  vertex 33.3016 56.7687 2.66444
  vertex 44.5093 58.3983 12.4154
  endloop
 endfacet

 facet normal -0.747684 0.554161 0.365889
  outer loop
  vertex 35.0631 57.7878 12.2823
  vertex 28.6858 55.6428 2.49935
  vertex 33.9532 55.6428 13.263
  endloop
 endfacet

 facet normal -0.311462 -0.944264 -0.10657
  outer loop
  vertex 36.6859 51.5532 24.7696
  vertex 35.063 53.4979 12.2823
  vertex 38.2684 52.6175 10.7145
  endloop
 endfacet

 facet normal -0.303859 -0.946812 -0.105907
  outer loop
  vertex 38.2684 52.6175 10.7145
  vertex 43.1959 49.7101 22.5695
  vertex 36.6859 51.5532 24.7696
  endloop
 endfacet

 facet normal 0.104715 0.967356 -0.230776
  outer loop
  vertex 49.7043 59.7324 20.3648
  vertex 44.5093 58.3983 12.4154
  vertex 38.2684 58.6681 10.7144
  endloop
 endfacet

 facet normal 0.164873 0.93989 -0.299036
  outer loop
  vertex 38.2684 58.6681 10.7144
  vertex 43.1959 61.5755 22.5695
  vertex 49.7043 59.7324 20.3648
  endloop
 endfacet

 facet normal 0.541352 -0.470595 -0.696763
  outer loop
  vertex 34.0771 55.6428 2.44893
  vertex 46.7489 55.6428 12.2943
  vertex 44.5093 52.8873 12.4154
  endloop
 endfacet

 facet normal -0.884268 -0.466562 0.0197226
  outer loop
  vertex 34.2291 55.6428 25.6318
  vertex 33.9532 55.6428 13.263
  vertex 35.063 53.4979 12.2823
  endloop
 endfacet

 facet normal -0.854003 -0.519396 0.0301026
  outer loop
  vertex 35.063 53.4979 12.2823
  vertex 36.6859 51.5532 24.7696
  vertex 34.2291 55.6428 25.6318
  endloop
 endfacet

 facet normal 0.663122 0.560748 -0.495814
  outer loop
  vertex 52.18 55.6428 19.5581
  vertex 46.7489 55.6428 12.2943
  vertex 44.5093 58.3983 12.4154
  endloop
 endfacet

 facet normal 0.676265 0.513555 -0.528135
  outer loop
  vertex 44.5093 58.3983 12.4154
  vertex 49.7043 59.7324 20.3648
  vertex 52.18 55.6428 19.5581
  endloop
 endfacet

 facet normal -0.884266 0.466566 0.0197225
  outer loop
  vertex 35.0631 57.7878 12.2823
  vertex 33.9532 55.6428 13.263
  vertex 34.2291 55.6428 25.6318
  endloop
 endfacet

 facet normal -0.854003 0.519396 0.0301017
  outer loop
  vertex 34.2291 55.6428 25.6318
  vertex 36.6859 59.7324 24.7696
  vertex 35.0631 57.7878 12.2823
  endloop
 endfacet

 facet normal 0.663125 -0.560743 -0.495816
  outer loop
  vertex 44.5093 52.8873 12.4154
  vertex 46.7489 55.6428 12.2943
  vertex 52.18 55.6428 19.5581
  endloop
 endfacet

 facet normal 0.676266 -0.513556 -0.528132
  outer loop
  vertex 52.18 55.6428 19.5581
  vertex 49.7043 51.5532 20.3648
  vertex 44.5093 52.8873 12.4154
  endloop
 endfacet

 facet normal -0.311461 0.944264 -0.106571
  outer loop
  vertex 38.2684 58.6681 10.7144
  vertex 35.0631 57.7878 12.2823
  vertex 36.6859 59.7324 24.7696
  endloop
 endfacet

 facet normal -0.303859 0.946812 -0.105908
  outer loop
  vertex 36.6859 59.7324 24.7696
  vertex 43.1959 61.5755 22.5695
  vertex 38.2684 58.6681 10.7144
  endloop
 endfacet

 facet normal 0.104715 -0.967356 -0.230774
  outer loop
  vertex 38.2684 52.6175 10.7145
  vertex 44.5093 52.8873 12.4154
  vertex 49.7043 51.5532 20.3648
  endloop
 endfacet

 facet normal 0.164874 -0.939891 -0.299036
  outer loop
  vertex 49.7043 51.5532 20.3648
  vertex 43.1959 49.7101 22.5695
  vertex 38.2684 52.6175 10.7145
  endloop
 endfacet

 facet normal -0.08501 -0.873158 0.479967
  outer loop
  vertex 36.6859 51.5532 24.7696
  vertex 43.1959 49.7101 22.5695
  vertex 45.476 53.1924 29.3084
  endloop
 endfacet

 facet normal 0.0682717 -0.973273 0.21927
  outer loop
  vertex 45.476 53.1924 29.3084
  vertex 40.0191 52.6242 28.4853
  vertex 36.6859 51.5532 24.7696
  endloop
 endfacet

 facet normal 0.337689 0.911484 0.234866
  outer loop
  vertex 49.7043 59.7324 20.3648
  vertex 43.1959 61.5755 22.5695
  vertex 44.6656 59.9118 26.9131
  endloop
 endfacet

 facet normal 0.323058 0.919638 0.223384
  outer loop
  vertex 44.6656 59.9118 26.9131
  vertex 49.312 58.6615 25.341
  vertex 49.7043 59.7324 20.3648
  endloop
 endfacet

 facet normal -0.25273 0.250767 0.934475
  outer loop
  vertex 29.5726 56.8117 2.52516
  vertex 24.4695 57.2889 1.01696
  vertex 22.6119 55.6428 0.956307
  endloop
 endfacet

 facet normal -0.242923 0.163178 0.956222
  outer loop
  vertex 22.6119 55.6428 0.956307
  vertex 28.6858 55.6428 2.49935
  vertex 29.5726 56.8117 2.52516
  endloop
 endfacet

 facet normal -0.57681 -0.48509 0.65725
  outer loop
  vertex 34.2291 55.6428 25.6318
  vertex 36.6859 51.5532 24.7696
  vertex 40.0191 52.6242 28.4853
  endloop
 endfacet

 facet normal -0.578994 -0.506914 0.638596
  outer loop
  vertex 40.0191 52.6242 28.4853
  vertex 38.0945 55.6428 29.1365
  vertex 34.2291 55.6428 25.6318
  endloop
 endfacet

 facet normal 0.857383 0.48509 0.171991
  outer loop
  vertex 52.18 55.6428 19.5581
  vertex 49.7043 59.7324 20.3648
  vertex 49.312 58.6615 25.341
  endloop
 endfacet

 facet normal 0.847792 0.506914 0.155842
  outer loop
  vertex 49.312 58.6615 25.341
  vertex 51.2366 55.6428 24.6898
  vertex 52.18 55.6428 19.5581
  endloop
 endfacet

 facet normal -0.57681 0.48509 0.65725
  outer loop
  vertex 40.0191 58.6615 28.4853
  vertex 36.6859 59.7324 24.7696
  vertex 34.2291 55.6428 25.6318
  endloop
 endfacet

 facet normal -0.578994 0.506914 0.638595
  outer loop
  vertex 34.2291 55.6428 25.6318
  vertex 38.0945 55.6428 29.1365
  vertex 40.0191 58.6615 28.4853
  endloop
 endfacet

 facet normal 0.857383 -0.485091 0.171991
  outer loop
  vertex 49.312 52.6242 25.341
  vertex 49.7043 51.5532 20.3648
  vertex 52.18 55.6428 19.5581
  endloop
 endfacet

 facet normal 0.847792 -0.506914 0.155843
  outer loop
  vertex 52.18 55.6428 19.5581
  vertex 51.2366 55.6428 24.6898
  vertex 49.312 52.6242 25.341
  endloop
 endfacet

 facet normal -0.125706 0.911484 0.391656
  outer loop
  vertex 44.6656 59.9118 26.9131
  vertex 43.1959 61.5755 22.5695
  vertex 36.6859 59.7324 24.7696
  endloop
 endfacet

 facet normal -0.121052 0.919638 0.373648
  outer loop
  vertex 36.6859 59.7324 24.7696
  vertex 40.0191 58.6615 28.4853
  vertex 44.6656 59.9118 26.9131
  endloop
 endfacet

 facet normal 0.358976 -0.873158 0.329745
  outer loop
  vertex 45.476 53.1924 29.3084
  vertex 43.1959 49.7101 22.5695
  vertex 49.7043 51.5532 20.3648
  endloop
 endfacet

 facet normal 0.078892 -0.973273 0.215676
  outer loop
  vertex 49.7043 51.5532 20.3648
  vertex 49.312 52.6242 25.341
  vertex 45.476 53.1924 29.3084
  endloop
 endfacet

 facet normal 0.385752 0.738983 0.552358
  outer loop
  vertex 49.312 58.6615 25.341
  vertex 44.6656 59.9118 26.9131
  vertex 45.6711 57.1657 29.8849
  endloop
 endfacet

 facet normal 0.385752 0.738983 0.552359
  outer loop
  vertex 45.6711 57.1657 29.8849
  vertex 47.3286 56.7197 29.3241
  vertex 49.312 58.6615 25.341
  endloop
 endfacet

 facet normal 0.320503 1.63603e-06 0.947247
  outer loop
  vertex 48.0152 55.6428 29.0918
  vertex 47.3286 56.7197 29.3241
  vertex 45.6711 57.1657 29.8849
  endloop
 endfacet

 facet normal 0.320503 7.52308e-07 0.947248
  outer loop
  vertex 45.6711 57.1657 29.8849
  vertex 44.0135 56.7197 30.4457
  vertex 43.327 55.6428 30.678
  endloop
 endfacet

 facet normal 0.761629 0.37098 0.531314
  outer loop
  vertex 43.327 55.6428 30.678
  vertex 44.0135 54.566 30.4457
  vertex 45.476 53.1924 29.3084
  endloop
 endfacet

 facet normal -0.282548 0.370981 0.884613
  outer loop
  vertex 45.476 53.1924 29.3084
  vertex 47.3286 54.566 29.3241
  vertex 48.0152 55.6428 29.0918
  endloop
 endfacet

 facet normal 0.320503 1.19417e-06 0.947248
  outer loop
  vertex 48.0152 55.6428 29.0918
  vertex 45.6711 57.1657 29.8849
  vertex 43.327 55.6428 30.678
  endloop
 endfacet

 facet normal 0.311052 -0.241047 0.919317
  outer loop
  vertex 43.327 55.6428 30.678
  vertex 45.476 53.1924 29.3084
  vertex 48.0152 55.6428 29.0918
  endloop
 endfacet

 facet normal -0.263547 -0.361006 0.894549
  outer loop
  vertex 38.0945 55.6428 29.1365
  vertex 40.0191 52.6242 28.4853
  vertex 44.0135 54.566 30.4457
  endloop
 endfacet

 facet normal -0.263547 -0.361007 0.894548
  outer loop
  vertex 44.0135 54.566 30.4457
  vertex 43.327 55.6428 30.678
  vertex 38.0945 55.6428 29.1365
  endloop
 endfacet

 facet normal 0.752562 0.361007 0.550749
  outer loop
  vertex 51.2366 55.6428 24.6898
  vertex 49.312 58.6615 25.341
  vertex 47.3286 56.7197 29.3241
  endloop
 endfacet

 facet normal 0.752562 0.361007 0.550749
  outer loop
  vertex 47.3286 56.7197 29.3241
  vertex 48.0152 55.6428 29.0918
  vertex 51.2366 55.6428 24.6898
  endloop
 endfacet

 facet normal -0.263547 0.361007 0.894549
  outer loop
  vertex 44.0135 56.7197 30.4457
  vertex 40.0191 58.6615 28.4853
  vertex 38.0945 55.6428 29.1365
  endloop
 endfacet

 facet normal -0.263547 0.361007 0.894548
  outer loop
  vertex 38.0945 55.6428 29.1365
  vertex 43.327 55.6428 30.678
  vertex 44.0135 56.7197 30.4457
  endloop
 endfacet

 facet normal 0.752562 -0.361007 0.550749
  outer loop
  vertex 47.3286 54.566 29.3241
  vertex 49.312 52.6242 25.341
  vertex 51.2366 55.6428 24.6898
  endloop
 endfacet

 facet normal 0.752562 -0.361008 0.550749
  outer loop
  vertex 51.2366 55.6428 24.6898
  vertex 48.0152 55.6428 29.0918
  vertex 47.3286 54.566 29.3241
  endloop
 endfacet

 facet normal 0.0288837 0.738983 0.673105
  outer loop
  vertex 45.6711 57.1657 29.8849
  vertex 44.6656 59.9118 26.9131
  vertex 40.0191 58.6615 28.4853
  endloop
 endfacet

 facet normal 0.0288839 0.738983 0.673104
  outer loop
  vertex 40.0191 58.6615 28.4853
  vertex 44.0135 56.7197 30.4457
  vertex 45.6711 57.1657 29.8849
  endloop
 endfacet

 facet normal -0.252731 0.250769 0.934474
  outer loop
  vertex 29.5726 76.532 2.52516
  vertex 24.4695 77.0092 1.01696
  vertex 22.6119 75.3631 0.956307
  endloop
 endfacet

 facet normal -0.242923 0.163176 0.956223
  outer loop
  vertex 22.6119 75.3631 0.956307
  vertex 28.6858 75.3631 2.49935
  vertex 29.5726 76.532 2.52516
  endloop
 endfacet

 facet normal 0.48765 -0.664174 0.566631
  outer loop
  vertex 45.476 53.1924 29.3084
  vertex 49.312 52.6242 25.341
  vertex 47.3286 54.566 29.3241
  endloop
 endfacet

 facet normal 0.632604 -0.702634 0.325755
  outer loop
  vertex 33.3016 74.2372 2.66444
  vertex 33.772 73.7047 0.602502
  vertex 35.5779 75.3631 0.672487
  endloop
 endfacet

 facet normal 0.70861 -0.37344 0.598678
  outer loop
  vertex 35.5779 75.3631 0.672487
  vertex 34.0771 75.3631 2.44893
  vertex 33.3016 74.2372 2.66444
  endloop
 endfacet

 facet normal -0.043676 -0.165564 -0.985231
  outer loop
  vertex 24.4695 77.0092 1.01696
  vertex 28.4741 77.7478 0.715307
  vertex 33.772 77.0215 0.602502
  endloop
 endfacet

 facet normal 0.0387239 -1.4427e-07 -0.99925
  outer loop
  vertex 33.772 77.0215 0.602502
  vertex 35.5779 75.3631 0.672487
  vertex 33.772 73.7047 0.602502
  endloop
 endfacet

 facet normal -0.043676 0.165564 -0.985231
  outer loop
  vertex 33.772 73.7047 0.602502
  vertex 28.4741 72.9784 0.715307
  vertex 24.4695 73.7171 1.01696
  endloop
 endfacet

 facet normal 0.0326352 -9.49423e-08 -0.999467
  outer loop
  vertex 24.4695 73.7171 1.01696
  vertex 22.6119 75.3631 0.956307
  vertex 24.4695 77.0092 1.01696
  endloop
 endfacet

 facet normal -0.0445093 -1.44235e-07 -0.999009
  outer loop
  vertex 24.4695 77.0092 1.01696
  vertex 33.772 77.0215 0.602502
  vertex 33.772 73.7047 0.602502
  endloop
 endfacet

 facet normal -0.0445093 -5.29949e-08 -0.999009
  outer loop
  vertex 33.772 73.7047 0.602502
  vertex 24.4695 73.7171 1.01696
  vertex 24.4695 77.0092 1.01696
  endloop
 endfacet

 facet normal -0.252731 -0.250768 0.934475
  outer loop
  vertex 22.6119 75.3631 0.956307
  vertex 24.4695 73.7171 1.01696
  vertex 29.5726 74.1942 2.52516
  endloop
 endfacet

 facet normal -0.242923 -0.163178 0.956222
  outer loop
  vertex 29.5726 74.1942 2.52516
  vertex 28.6858 75.3631 2.49935
  vertex 22.6119 75.3631 0.956307
  endloop
 endfacet

 facet normal 0.632605 0.702634 0.325755
  outer loop
  vertex 35.5779 75.3631 0.672487
  vertex 33.772 77.0215 0.602502
  vertex 33.3016 76.489 2.66444
  endloop
 endfacet

 facet normal 0.708611 0.373436 0.598679
  outer loop
  vertex 33.3016 76.489 2.66444
  vertex 34.0771 75.3631 2.44893
  vertex 35.5779 75.3631 0.672487
  endloop
 endfacet

 facet normal 0.136302 0.951229 0.276742
  outer loop
  vertex 33.3016 76.489 2.66444
  vertex 33.772 77.0215 0.602502
  vertex 28.4741 77.7478 0.715307
  endloop
 endfacet

 facet normal 0.232809 0.971204 0.0506162
  outer loop
  vertex 28.4741 77.7478 0.715307
  vertex 31.4842 76.9191 2.7722
  vertex 33.3016 76.489 2.66444
  endloop
 endfacet

 facet normal -0.117874 -0.849245 0.514674
  outer loop
  vertex 24.4695 73.7171 1.01696
  vertex 28.4741 72.9784 0.715307
  vertex 31.4842 73.8072 2.7722
  endloop
 endfacet

 facet normal -0.20725 -0.479238 0.852865
  outer loop
  vertex 31.4842 73.8072 2.7722
  vertex 29.5726 74.1942 2.52516
  vertex 24.4695 73.7171 1.01696
  endloop
 endfacet

 facet normal -0.117874 0.849245 0.514673
  outer loop
  vertex 31.4842 76.9191 2.7722
  vertex 28.4741 77.7478 0.715307
  vertex 24.4695 77.0092 1.01696
  endloop
 endfacet

 facet normal -0.20725 0.479245 0.852861
  outer loop
  vertex 24.4695 77.0092 1.01696
  vertex 29.5726 76.532 2.52516
  vertex 31.4842 76.9191 2.7722
  endloop
 endfacet

 facet normal 0.136302 -0.951229 0.27674
  outer loop
  vertex 28.4741 72.9784 0.715307
  vertex 33.772 73.7047 0.602502
  vertex 33.3016 74.2372 2.66444
  endloop
 endfacet

 facet normal 0.232808 -0.971205 0.0506182
  outer loop
  vertex 33.3016 74.2372 2.66444
  vertex 31.4842 73.8072 2.7722
  vertex 28.4741 72.9784 0.715307
  endloop
 endfacet

 facet normal 0.192632 0.90758 -0.373083
  outer loop
  vertex 44.5094 78.1186 12.4156
  vertex 33.3016 76.489 2.66444
  vertex 31.4842 76.9191 2.7722
  endloop
 endfacet

 facet normal 0.116466 0.954078 -0.275991
  outer loop
  vertex 31.4842 76.9191 2.7722
  vertex 38.2684 78.3884 10.7144
  vertex 44.5094 78.1186 12.4156
  endloop
 endfacet

 facet normal -0.249252 -0.967847 0.0338545
  outer loop
  vertex 31.4842 73.8072 2.7722
  vertex 38.2684 72.3378 10.7144
  vertex 35.0631 73.2182 12.2823
  endloop
 endfacet

 facet normal -0.745908 -0.557835 0.363925
  outer loop
  vertex 29.5726 74.1942 2.52516
  vertex 35.0631 73.2182 12.2823
  vertex 28.6858 75.3631 2.49935
  endloop
 endfacet

 facet normal -0.200236 0.979638 0.0146789
  outer loop
  vertex 31.4842 76.9191 2.7722
  vertex 29.5726 76.532 2.52516
  vertex 35.0631 77.5081 12.2823
  endloop
 endfacet

 facet normal 0.19263 -0.907581 -0.373083
  outer loop
  vertex 31.4842 73.8072 2.7722
  vertex 33.3016 74.2372 2.66444
  vertex 44.5093 72.6076 12.4155
  endloop
 endfacet

 facet normal 0.116472 -0.954075 -0.275999
  outer loop
  vertex 44.5093 72.6076 12.4155
  vertex 38.2684 72.3378 10.7144
  vertex 31.4842 73.8072 2.7722
  endloop
 endfacet

 facet normal 0.527957 0.495621 -0.689653
  outer loop
  vertex 34.0771 75.3631 2.44893
  vertex 33.3016 76.489 2.66444
  vertex 44.5094 78.1186 12.4156
  endloop
 endfacet

 facet normal -0.747684 0.55416 0.365889
  outer loop
  vertex 35.0631 77.5081 12.2823
  vertex 28.6858 75.3631 2.49935
  vertex 33.9532 75.3631 13.263
  endloop
 endfacet

 facet normal -0.311466 -0.944263 -0.10657
  outer loop
  vertex 36.6859 71.2736 24.7696
  vertex 35.0631 73.2182 12.2823
  vertex 38.2684 72.3378 10.7144
  endloop
 endfacet

 facet normal -0.303858 -0.946813 -0.105906
  outer loop
  vertex 38.2684 72.3378 10.7144
  vertex 43.1959 69.4304 22.5695
  vertex 36.6859 71.2736 24.7696
  endloop
 endfacet

 facet normal 0.104716 0.967355 -0.230777
  outer loop
  vertex 49.7043 79.4527 20.3648
  vertex 44.5094 78.1186 12.4156
  vertex 38.2684 78.3884 10.7144
  endloop
 endfacet

 facet normal 0.164873 0.939891 -0.299036
  outer loop
  vertex 38.2684 78.3884 10.7144
  vertex 43.1959 81.2958 22.5695
  vertex 49.7043 79.4527 20.3648
  endloop
 endfacet

 facet normal 0.541346 -0.470613 -0.696755
  outer loop
  vertex 34.0771 75.3631 2.44893
  vertex 46.7489 75.3631 12.2943
  vertex 44.5093 72.6076 12.4155
  endloop
 endfacet

 facet normal -0.884267 -0.466565 0.0197226
  outer loop
  vertex 34.2291 75.3631 25.6318
  vertex 33.9532 75.3631 13.263
  vertex 35.0631 73.2182 12.2823
  endloop
 endfacet

 facet normal -0.854003 -0.519396 0.0301021
  outer loop
  vertex 35.0631 73.2182 12.2823
  vertex 36.6859 71.2736 24.7696
  vertex 34.2291 75.3631 25.6318
  endloop
 endfacet

 facet normal 0.663123 0.560746 -0.495815
  outer loop
  vertex 52.18 75.3631 19.5581
  vertex 46.7489 75.3631 12.2943
  vertex 44.5094 78.1186 12.4156
  endloop
 endfacet

 facet normal 0.676265 0.513555 -0.528135
  outer loop
  vertex 44.5094 78.1186 12.4156
  vertex 49.7043 79.4527 20.3648
  vertex 52.18 75.3631 19.5581
  endloop
 endfacet

 facet normal -0.884267 0.466565 0.0197225
  outer loop
  vertex 35.0631 77.5081 12.2823
  vertex 33.9532 75.3631 13.263
  vertex 34.2291 75.3631 25.6318
  endloop
 endfacet

 facet normal -0.854003 0.519396 0.030102
  outer loop
  vertex 34.2291 75.3631 25.6318
  vertex 36.6859 79.4527 24.7696
  vertex 35.0631 77.5081 12.2823
  endloop
 endfacet

 facet normal 0.663119 -0.560753 -0.495812
  outer loop
  vertex 44.5093 72.6076 12.4155
  vertex 46.7489 75.3631 12.2943
  vertex 52.18 75.3631 19.5581
  endloop
 endfacet

 facet normal 0.676264 -0.513556 -0.528136
  outer loop
  vertex 52.18 75.3631 19.5581
  vertex 49.7043 71.2736 20.3648
  vertex 44.5093 72.6076 12.4155
  endloop
 endfacet

 facet normal -0.311458 0.944265 -0.106571
  outer loop
  vertex 38.2684 78.3884 10.7144
  vertex 35.0631 77.5081 12.2823
  vertex 36.6859 79.4527 24.7696
  endloop
 endfacet

 facet normal -0.303859 0.946812 -0.105909
  outer loop
  vertex 36.6859 79.4527 24.7696
  vertex 43.1959 81.2958 22.5695
  vertex 38.2684 78.3884 10.7144
  endloop
 endfacet

 facet normal 0.10472 -0.967354 -0.230779
  outer loop
  vertex 38.2684 72.3378 10.7144
  vertex 44.5093 72.6076 12.4155
  vertex 49.7043 71.2736 20.3648
  endloop
 endfacet

 facet normal 0.164874 -0.939891 -0.299034
  outer loop
  vertex 49.7043 71.2736 20.3648
  vertex 43.1959 69.4304 22.5695
  vertex 38.2684 72.3378 10.7144
  endloop
 endfacet

 facet normal -0.125706 -0.911484 0.391656
  outer loop
  vertex 36.6859 71.2736 24.7696
  vertex 43.1959 69.4304 22.5695
  vertex 44.6656 71.0941 26.9131
  endloop
 endfacet

 facet normal -0.121051 -0.919638 0.373647
  outer loop
  vertex 44.6656 71.0941 26.9131
  vertex 40.0191 72.3445 28.4853
  vertex 36.6859 71.2736 24.7696
  endloop
 endfacet

 facet normal 0.0288841 -0.738983 0.673104
  outer loop
  vertex 40.0191 72.3445 28.4853
  vertex 44.6656 71.0941 26.9131
  vertex 45.6711 73.8402 29.8849
  endloop
 endfacet

 facet normal 0.0288841 -0.738983 0.673104
  outer loop
  vertex 45.6711 73.8402 29.8849
  vertex 44.0135 74.2863 30.4457
  vertex 40.0191 72.3445 28.4853
  endloop
 endfacet

 facet normal 0.337689 0.911485 0.234866
  outer loop
  vertex 49.7043 79.4527 20.3648
  vertex 43.1959 81.2958 22.5695
  vertex 44.6656 79.6321 26.9131
  endloop
 endfacet

 facet normal 0.323058 0.919637 0.223385
  outer loop
  vertex 44.6656 79.6321 26.9131
  vertex 49.312 78.3818 25.341
  vertex 49.7043 79.4527 20.3648
  endloop
 endfacet

 facet normal -0.57681 -0.48509 0.65725
  outer loop
  vertex 34.2291 75.3631 25.6318
  vertex 36.6859 71.2736 24.7696
  vertex 40.0191 72.3445 28.4853
  endloop
 endfacet

 facet normal -0.578994 -0.506914 0.638595
  outer loop
  vertex 40.0191 72.3445 28.4853
  vertex 38.0945 75.3631 29.1365
  vertex 34.2291 75.3631 25.6318
  endloop
 endfacet

 facet normal 0.857384 0.485089 0.171992
  outer loop
  vertex 52.18 75.3631 19.5581
  vertex 49.7043 79.4527 20.3648
  vertex 49.312 78.3818 25.341
  endloop
 endfacet

 facet normal 0.847792 0.506914 0.155843
  outer loop
  vertex 49.312 78.3818 25.341
  vertex 51.2366 75.3631 24.6898
  vertex 52.18 75.3631 19.5581
  endloop
 endfacet

 facet normal -0.57681 0.485091 0.657249
  outer loop
  vertex 40.0191 78.3818 28.4853
  vertex 36.6859 79.4527 24.7696
  vertex 34.2291 75.3631 25.6318
  endloop
 endfacet

 facet normal -0.578994 0.506914 0.638595
  outer loop
  vertex 34.2291 75.3631 25.6318
  vertex 38.0945 75.3631 29.1365
  vertex 40.0191 78.3818 28.4853
  endloop
 endfacet

 facet normal 0.857384 -0.48509 0.171991
  outer loop
  vertex 49.312 72.3445 25.341
  vertex 49.7043 71.2736 20.3648
  vertex 52.18 75.3631 19.5581
  endloop
 endfacet

 facet normal 0.847792 -0.506914 0.155843
  outer loop
  vertex 52.18 75.3631 19.5581
  vertex 51.2366 75.3631 24.6898
  vertex 49.312 72.3445 25.341
  endloop
 endfacet

 facet normal -0.125706 0.911484 0.391656
  outer loop
  vertex 44.6656 79.6321 26.9131
  vertex 43.1959 81.2958 22.5695
  vertex 36.6859 79.4527 24.7696
  endloop
 endfacet

 facet normal -0.121052 0.919638 0.373648
  outer loop
  vertex 36.6859 79.4527 24.7696
  vertex 40.0191 78.3818 28.4853
  vertex 44.6656 79.6321 26.9131
  endloop
 endfacet

 facet normal 0.33769 -0.911484 0.234866
  outer loop
  vertex 44.6656 71.0941 26.9131
  vertex 43.1959 69.4304 22.5695
  vertex 49.7043 71.2736 20.3648
  endloop
 endfacet

 facet normal 0.323057 -0.919638 0.223383
  outer loop
  vertex 49.7043 71.2736 20.3648
  vertex 49.312 72.3445 25.341
  vertex 44.6656 71.0941 26.9131
  endloop
 endfacet

 facet normal 0.385752 0.738983 0.552358
  outer loop
  vertex 49.312 78.3818 25.341
  vertex 44.6656 79.6321 26.9131
  vertex 45.6711 76.886 29.8849
  endloop
 endfacet

 facet normal 0.385752 0.738983 0.552359
  outer loop
  vertex 45.6711 76.886 29.8849
  vertex 47.3286 76.44 29.3241
  vertex 49.312 78.3818 25.341
  endloop
 endfacet

 facet normal 0.320503 1.63603e-06 0.947247
  outer loop
  vertex 48.0152 75.3631 29.0918
  vertex 47.3286 76.44 29.3241
  vertex 45.6711 76.886 29.8849
  endloop
 endfacet

 facet normal 0.320503 7.52308e-07 0.947248
  outer loop
  vertex 45.6711 76.886 29.8849
  vertex 44.0135 76.44 30.4457
  vertex 43.327 75.3631 30.678
  endloop
 endfacet

 facet normal 0.320502 -1.03483e-07 0.947248
  outer loop
  vertex 43.327 75.3631 30.678
  vertex 44.0135 74.2863 30.4457
  vertex 45.6711 73.8402 29.8849
  endloop
 endfacet

 facet normal 0.320503 -1.03484e-07 0.947248
  outer loop
  vertex 45.6711 73.8402 29.8849
  vertex 47.3286 74.2863 29.3241
  vertex 48.0152 75.3631 29.0918
  endloop
 endfacet

 facet normal 0.320503 1.19417e-06 0.947248
  outer loop
  vertex 48.0152 75.3631 29.0918
  vertex 45.6711 76.886 29.8849
  vertex 43.327 75.3631 30.678
  endloop
 endfacet

 facet normal 0.320503 5.45342e-07 0.947248
  outer loop
  vertex 43.327 75.3631 30.678
  vertex 45.6711 73.8402 29.8849
  vertex 48.0152 75.3631 29.0918
  endloop
 endfacet

 facet normal -0.263547 -0.361006 0.894549
  outer loop
  vertex 38.0945 75.3631 29.1365
  vertex 40.0191 72.3445 28.4853
  vertex 44.0135 74.2863 30.4457
  endloop
 endfacet

 facet normal -0.263547 -0.361007 0.894548
  outer loop
  vertex 44.0135 74.2863 30.4457
  vertex 43.327 75.3631 30.678
  vertex 38.0945 75.3631 29.1365
  endloop
 endfacet

 facet normal 0.752562 0.361007 0.550749
  outer loop
  vertex 51.2366 75.3631 24.6898
  vertex 49.312 78.3818 25.341
  vertex 47.3286 76.44 29.3241
  endloop
 endfacet

 facet normal 0.752562 0.361008 0.550749
  outer loop
  vertex 47.3286 76.44 29.3241
  vertex 48.0152 75.3631 29.0918
  vertex 51.2366 75.3631 24.6898
  endloop
 endfacet

 facet normal -0.263547 0.361007 0.894549
  outer loop
  vertex 44.0135 76.44 30.4457
  vertex 40.0191 78.3818 28.4853
  vertex 38.0945 75.3631 29.1365
  endloop
 endfacet

 facet normal -0.263547 0.361007 0.894548
  outer loop
  vertex 38.0945 75.3631 29.1365
  vertex 43.327 75.3631 30.678
  vertex 44.0135 76.44 30.4457
  endloop
 endfacet

 facet normal 0.752562 -0.361007 0.550749
  outer loop
  vertex 47.3286 74.2863 29.3241
  vertex 49.312 72.3445 25.341
  vertex 51.2366 75.3631 24.6898
  endloop
 endfacet

 facet normal 0.752562 -0.361008 0.550749
  outer loop
  vertex 51.2366 75.3631 24.6898
  vertex 48.0152 75.3631 29.0918
  vertex 47.3286 74.2863 29.3241
  endloop
 endfacet

 facet normal 0.0288838 0.738983 0.673105
  outer loop
  vertex 45.6711 76.886 29.8849
  vertex 44.6656 79.6321 26.9131
  vertex 40.0191 78.3818 28.4853
  endloop
 endfacet

 facet normal 0.028884 0.738983 0.673104
  outer loop
  vertex 40.0191 78.3818 28.4853
  vertex 44.0135 76.44 30.4457
  vertex 45.6711 76.886 29.8849
  endloop
 endfacet

 facet normal 0.385751 -0.738983 0.552358
  outer loop
  vertex 45.6711 73.8402 29.8849
  vertex 44.6656 71.0941 26.9131
  vertex 49.312 72.3445 25.341
  endloop
 endfacet

 facet normal 0.385752 -0.738983 0.552359
  outer loop
  vertex 49.312 72.3445 25.341
  vertex 47.3286 74.2863 29.3241
  vertex 45.6711 73.8402 29.8849
  endloop
 endfacet

 facet normal -0.200238 -0.979637 0.0146789
  outer loop
  vertex 29.5726 54.4739 2.52516
  vertex 31.4842 54.0869 2.7722
  vertex 35.063 53.4979 12.2823
  endloop
 endfacet

 facet normal -0.745908 0.557835 0.363926
  outer loop
  vertex 35.0631 57.7878 12.2823
  vertex 29.5726 56.8117 2.52516
  vertex 28.6858 55.6428 2.49935
  endloop
 endfacet

 facet normal -0.747685 -0.554159 0.365889
  outer loop
  vertex 28.6858 55.6428 2.49935
  vertex 35.063 53.4979 12.2823
  vertex 33.9532 55.6428 13.263
  endloop
 endfacet

 facet normal 0.527953 -0.495619 -0.689657
  outer loop
  vertex 33.3016 54.5169 2.66444
  vertex 34.0771 55.6428 2.44893
  vertex 44.5093 52.8873 12.4154
  endloop
 endfacet

 facet normal -0.249248 0.967848 0.0338534
  outer loop
  vertex 38.2684 58.6681 10.7144
  vertex 31.4842 57.1988 2.7722
  vertex 35.0631 57.7878 12.2823
  endloop
 endfacet

 facet normal 0.541349 0.470605 -0.696759
  outer loop
  vertex 46.7489 55.6428 12.2943
  vertex 34.0771 55.6428 2.44893
  vertex 44.5093 58.3983 12.4154
  endloop
 endfacet

 facet normal -0.0434148 -0.664175 0.746316
  outer loop
  vertex 40.0191 52.6242 28.4853
  vertex 45.476 53.1924 29.3084
  vertex 44.0135 54.566 30.4457
  endloop
 endfacet

 facet normal -0.200239 -0.979637 0.0146797
  outer loop
  vertex 29.5726 74.1942 2.52516
  vertex 31.4842 73.8072 2.7722
  vertex 35.0631 73.2182 12.2823
  endloop
 endfacet

 facet normal -0.745909 0.557833 0.363926
  outer loop
  vertex 35.0631 77.5081 12.2823
  vertex 29.5726 76.532 2.52516
  vertex 28.6858 75.3631 2.49935
  endloop
 endfacet

 facet normal -0.747685 -0.554159 0.365889
  outer loop
  vertex 28.6858 75.3631 2.49935
  vertex 35.0631 73.2182 12.2823
  vertex 33.9532 75.3631 13.263
  endloop
 endfacet

 facet normal 0.527955 -0.495622 -0.689653
  outer loop
  vertex 33.3016 74.2372 2.66444
  vertex 34.0771 75.3631 2.44893
  vertex 44.5093 72.6076 12.4155
  endloop
 endfacet

 facet normal -0.249246 0.967848 0.0338525
  outer loop
  vertex 38.2684 78.3884 10.7144
  vertex 31.4842 76.9191 2.7722
  vertex 35.0631 77.5081 12.2823
  endloop
 endfacet

 facet normal 0.541345 0.470616 -0.696754
  outer loop
  vertex 46.7489 75.3631 12.2943
  vertex 34.0771 75.3631 2.44893
  vertex 44.5094 78.1186 12.4156
  endloop
 endfacet

 facet normal -0.157338 -0.798028 0.581718
  outer loop
  vertex 74.4634 51.5993 0.246074
  vertex 81.5947 50.1933 0.246074
  vertex 85.1845 52.8573 4.8716
  endloop
 endfacet

 facet normal -0.189724 -0.743014 0.641821
  outer loop
  vertex 85.1845 52.8573 4.8716
  vertex 79.9195 53.8797 4.49879
  vertex 74.4634 51.5993 0.246074
  endloop
 endfacet

 facet normal -0.491697 -0.327917 0.806663
  outer loop
  vertex 74.4634 51.5993 0.246074
  vertex 79.9195 53.8797 4.49879
  vertex 78.5597 55.9584 4.51498
  endloop
 endfacet

 facet normal -0.37343 -0.445779 0.81353
  outer loop
  vertex 78.5597 55.9584 4.51498
  vertex 73.0909 54.9937 1.47601
  vertex 74.4634 51.5993 0.246074
  endloop
 endfacet

 facet normal -0.388387 -0.528193 0.755095
  outer loop
  vertex 68.4344 54.9159 10.0137
  vertex 73.5949 50.9493 9.89342
  vertex 79.3989 53.0897 14.376
  endloop
 endfacet

 facet normal -0.390138 -0.507952 0.767969
  outer loop
  vertex 79.3989 53.0897 14.376
  vertex 76.92 54.9937 14.376
  vertex 68.4344 54.9159 10.0137
  endloop
 endfacet

 facet normal 0.457283 0.474047 0.752444
  outer loop
  vertex 96.9529 54.9937 10.6142
  vertex 93.8977 59.1497 9.85264
  vertex 88.7893 56.8977 14.376
  endloop
 endfacet

 facet normal 0.448164 0.583502 0.677255
  outer loop
  vertex 88.7893 56.8977 14.376
  vertex 91.2682 54.9937 14.376
  vertex 96.9529 54.9937 10.6142
  endloop
 endfacet

 facet normal -0.0525539 0.837861 0.543349
  outer loop
  vertex 78.5597 55.9584 4.51498
  vertex 85.8851 56.0538 5.07644
  vertex 73.1588 58.388 0.246074
  endloop
 endfacet

 facet normal 0 0 -1
  outer loop
  vertex 73.1588 58.388 0.246074
  vertex 80.2901 59.794 0.246074
  vertex 87.4213 58.388 0.246074
  endloop
 endfacet

 facet normal 0.692947 0.133162 -0.708585
  outer loop
  vertex 87.4213 58.388 0.246074
  vertex 90.1946 55.3548 2.38814
  vertex 88.7259 51.5993 0.246074
  endloop
 endfacet

 facet normal 0 0 -1
  outer loop
  vertex 88.7259 51.5993 0.246074
  vertex 81.5947 50.1933 0.246074
  vertex 74.4634 51.5993 0.246074
  endloop
 endfacet

 facet normal -0.851308 -0.163594 -0.49851
  outer loop
  vertex 74.4634 51.5993 0.246074
  vertex 73.0909 54.9937 1.47601
  vertex 73.1588 58.388 0.246074
  endloop
 endfacet

 facet normal 0 0 -1
  outer loop
  vertex 73.1588 58.388 0.246074
  vertex 87.4213 58.388 0.246074
  vertex 88.7259 51.5993 0.246074
  endloop
 endfacet

 facet normal 0 0 -1
  outer loop
  vertex 88.7259 51.5993 0.246074
  vertex 74.4634 51.5993 0.246074
  vertex 73.1588 58.388 0.246074
  endloop
 endfacet

 facet normal -0.124894 0.818854 0.560249
  outer loop
  vertex 85.3907 57.7251 14.5024
  vertex 73.7293 59.0351 9.98794
  vertex 79.3989 56.8977 14.376
  endloop
 endfacet

 facet normal 0.207939 -0.760041 0.615709
  outer loop
  vertex 85.3907 52.2623 14.5024
  vertex 94.2223 50.9418 9.88964
  vertex 88.7893 53.0897 14.376
  endloop
 endfacet

 facet normal -0.395735 0.513444 0.761426
  outer loop
  vertex 79.3989 56.8977 14.376
  vertex 73.7293 59.0351 9.98794
  vertex 68.4344 54.9159 10.0137
  endloop
 endfacet

 facet normal -0.395615 0.515083 0.760381
  outer loop
  vertex 68.4344 54.9159 10.0137
  vertex 76.92 54.9937 14.376
  vertex 79.3989 56.8977 14.376
  endloop
 endfacet

 facet normal 0.458273 -0.446281 0.768647
  outer loop
  vertex 88.7893 53.0897 14.376
  vertex 94.2223 50.9418 9.88964
  vertex 96.9529 54.9937 10.6142
  endloop
 endfacet

 facet normal 0.448164 -0.583502 0.677255
  outer loop
  vertex 96.9529 54.9937 10.6142
  vertex 91.2682 54.9937 14.376
  vertex 88.7893 53.0897 14.376
  endloop
 endfacet

 facet normal 0.395617 -0.762879 -0.511373
  outer loop
  vertex 90.1946 55.3548 2.38814
  vertex 97.0741 55.9207 6.86609
  vertex 90.0495 53.7738 4.63439
  endloop
 endfacet

 facet normal 0.11651 -0.778194 -0.617122
  outer loop
  vertex 86.0165 49.3931 9.39712
  vertex 85.1845 52.8573 4.8716
  vertex 90.0495 53.7738 4.63439
  endloop
 endfacet

 facet normal 0.184857 -0.796328 -0.575925
  outer loop
  vertex 90.0495 53.7738 4.63439
  vertex 94.2223 50.9418 9.88964
  vertex 86.0165 49.3931 9.39712
  endloop
 endfacet

 facet normal -0.00318253 0.991902 -0.126967
  outer loop
  vertex 78.5597 55.9584 4.51498
  vertex 71.9637 56.1622 6.27204
  vertex 85.8851 56.0538 5.07644
  endloop
 endfacet

 facet normal -0.0902023 -0.872883 0.479519
  outer loop
  vertex 86.0165 49.3931 9.39712
  vertex 85.3907 52.2623 14.5024
  vertex 73.5949 50.9493 9.89342
  endloop
 endfacet

 facet normal 0.118304 0.867942 0.482371
  outer loop
  vertex 85.9489 60.6237 9.14997
  vertex 85.3907 57.7251 14.5024
  vertex 93.8977 59.1497 9.85264
  endloop
 endfacet

 facet normal 0.833272 -0.54237 -0.107204
  outer loop
  vertex 94.2223 50.9418 9.88964
  vertex 97.0741 55.9207 6.86609
  vertex 96.9529 54.9937 10.6142
  endloop
 endfacet

 facet normal 0.18592 0.652359 -0.734753
  outer loop
  vertex 85.8851 56.0538 5.07644
  vertex 85.9489 60.6237 9.14997
  vertex 93.8977 59.1497 9.85264
  endloop
 endfacet

 facet normal -0.586168 0.751574 -0.302562
  outer loop
  vertex 71.9637 56.1622 6.27204
  vertex 68.4344 54.9159 10.0137
  vertex 73.7293 59.0351 9.98794
  endloop
 endfacet

 facet normal -0.113299 -0.798887 -0.590714
  outer loop
  vertex 79.9195 53.8797 4.49879
  vertex 85.1845 52.8573 4.8716
  vertex 86.0165 49.3931 9.39712
  endloop
 endfacet

 facet normal -0.12395 -0.80375 -0.581912
  outer loop
  vertex 86.0165 49.3931 9.39712
  vertex 73.5949 50.9493 9.89342
  vertex 79.9195 53.8797 4.49879
  endloop
 endfacet

 facet normal -0.334703 -0.606032 -0.721595
  outer loop
  vertex 71.9637 56.1622 6.27204
  vertex 79.9195 53.8797 4.49879
  vertex 73.5949 50.9493 9.89342
  endloop
 endfacet

 facet normal -0.474363 -0.597544 -0.646468
  outer loop
  vertex 73.5949 50.9493 9.89342
  vertex 68.4344 54.9159 10.0137
  vertex 71.9637 56.1622 6.27204
  endloop
 endfacet

 facet normal 0.115856 0.733462 -0.669784
  outer loop
  vertex 97.0741 55.9207 6.86609
  vertex 85.8851 56.0538 5.07644
  vertex 93.8977 59.1497 9.85264
  endloop
 endfacet

 facet normal -0.136476 0.660241 -0.73855
  outer loop
  vertex 85.8851 56.0538 5.07644
  vertex 73.7293 59.0351 9.98794
  vertex 85.9489 60.6237 9.14997
  endloop
 endfacet

 facet normal 0.177843 -0.902032 0.393332
  outer loop
  vertex 81.5947 71.3701 0.246074
  vertex 88.7259 72.7761 0.246074
  vertex 90.0495 74.9506 4.63439
  endloop
 endfacet

 facet normal 0.189226 -0.907239 0.375648
  outer loop
  vertex 90.0495 74.9506 4.63439
  vertex 85.1845 74.0341 4.8716
  vertex 81.5947 71.3701 0.246074
  endloop
 endfacet

 facet normal -0.157338 -0.798028 0.581719
  outer loop
  vertex 74.4634 72.7761 0.246074
  vertex 81.5947 71.3701 0.246074
  vertex 85.1845 74.0341 4.8716
  endloop
 endfacet

 facet normal -0.189724 -0.743014 0.641822
  outer loop
  vertex 85.1845 74.0341 4.8716
  vertex 79.9195 75.0565 4.49879
  vertex 74.4634 72.7761 0.246074
  endloop
 endfacet

 facet normal -0.491698 -0.327916 0.806663
  outer loop
  vertex 74.4634 72.7761 0.246074
  vertex 79.9195 75.0565 4.49879
  vertex 78.5597 77.1352 4.51498
  endloop
 endfacet

 facet normal -0.37343 -0.445779 0.81353
  outer loop
  vertex 78.5597 77.1352 4.51498
  vertex 73.0909 76.1705 1.47601
  vertex 74.4634 72.7761 0.246074
  endloop
 endfacet

 facet normal -0.388387 -0.528194 0.755094
  outer loop
  vertex 68.4344 76.0927 10.0137
  vertex 73.5949 72.1261 9.89342
  vertex 79.3989 74.2665 14.376
  endloop
 endfacet

 facet normal -0.390138 -0.507952 0.76797
  outer loop
  vertex 79.3989 74.2665 14.376
  vertex 76.92 76.1705 14.376
  vertex 68.4344 76.0927 10.0137
  endloop
 endfacet

 facet normal 0.456965 0.318319 0.830576
  outer loop
  vertex 96.9529 76.1705 10.6142
  vertex 93.9251 79.9543 10.8299
  vertex 88.7893 78.0745 14.376
  endloop
 endfacet

 facet normal 0.448164 0.583502 0.677256
  outer loop
  vertex 88.7893 78.0745 14.376
  vertex 91.2682 76.1705 14.376
  vertex 96.9529 76.1705 10.6142
  endloop
 endfacet

 facet normal -0.0525539 0.837861 0.543349
  outer loop
  vertex 78.5597 77.1352 4.51498
  vertex 85.8851 77.2306 5.07644
  vertex 73.1588 79.5648 0.246074
  endloop
 endfacet

 facet normal 0 0 -1
  outer loop
  vertex 73.1588 79.5648 0.246074
  vertex 80.2901 80.9708 0.246074
  vertex 87.4213 79.5648 0.246074
  endloop
 endfacet

 facet normal 0.692946 0.133162 -0.708586
  outer loop
  vertex 87.4213 79.5648 0.246074
  vertex 90.1947 76.5316 2.38814
  vertex 88.7259 72.7761 0.246074
  endloop
 endfacet

 facet normal 0 0 -1
  outer loop
  vertex 88.7259 72.7761 0.246074
  vertex 81.5947 71.3701 0.246074
  vertex 74.4634 72.7761 0.246074
  endloop
 endfacet

 facet normal -0.851308 -0.163594 -0.49851
  outer loop
  vertex 74.4634 72.7761 0.246074
  vertex 73.0909 76.1705 1.47601
  vertex 73.1588 79.5648 0.246074
  endloop
 endfacet

 facet normal 0 0 -1
  outer loop
  vertex 73.1588 79.5648 0.246074
  vertex 87.4213 79.5648 0.246074
  vertex 88.7259 72.7761 0.246074
  endloop
 endfacet

 facet normal 0 0 -1
  outer loop
  vertex 88.7259 72.7761 0.246074
  vertex 74.4634 72.7761 0.246074
  vertex 73.1588 79.5648 0.246074
  endloop
 endfacet

 facet normal -0.124895 0.818854 0.560249
  outer loop
  vertex 85.3907 78.9019 14.5024
  vertex 73.7293 80.2119 9.98794
  vertex 79.3989 78.0745 14.376
  endloop
 endfacet

 facet normal 0.207937 -0.760044 0.615707
  outer loop
  vertex 85.3907 73.4391 14.5024
  vertex 94.2223 72.1186 9.88963
  vertex 88.7893 74.2665 14.376
  endloop
 endfacet

 facet normal -0.395734 0.513445 0.761426
  outer loop
  vertex 79.3989 78.0745 14.376
  vertex 73.7293 80.2119 9.98794
  vertex 68.4344 76.0927 10.0137
  endloop
 endfacet

 facet normal -0.395615 0.515082 0.760381
  outer loop
  vertex 68.4344 76.0927 10.0137
  vertex 76.92 76.1705 14.376
  vertex 79.3989 78.0745 14.376
  endloop
 endfacet

 facet normal 0.458273 -0.446282 0.768647
  outer loop
  vertex 88.7893 74.2665 14.376
  vertex 94.2223 72.1186 9.88963
  vertex 96.9529 76.1705 10.6142
  endloop
 endfacet

 facet normal 0.448164 -0.583501 0.677256
  outer loop
  vertex 96.9529 76.1705 10.6142
  vertex 91.2682 76.1705 14.376
  vertex 88.7893 74.2665 14.376
  endloop
 endfacet

 facet normal 0.395618 -0.762879 -0.511373
  outer loop
  vertex 90.1947 76.5316 2.38814
  vertex 97.0741 77.0975 6.86609
  vertex 90.0495 74.9506 4.63439
  endloop
 endfacet

 facet normal 0.655903 0.754503 -0.0227239
  outer loop
  vertex 97.0741 77.0975 6.86609
  vertex 93.76 80.0216 8.29802
  vertex 93.9251 79.9543 10.8299
  endloop
 endfacet

 facet normal 0.773518 0.608957 0.175615
  outer loop
  vertex 93.9251 79.9543 10.8299
  vertex 96.9529 76.1705 10.6142
  vertex 97.0741 77.0975 6.86609
  endloop
 endfacet

 facet normal -0.00318253 0.991902 -0.126967
  outer loop
  vertex 78.5597 77.1352 4.51498
  vertex 71.9637 77.339 6.27204
  vertex 85.8851 77.2306 5.07644
  endloop
 endfacet

 facet normal -0.0902023 -0.872883 0.47952
  outer loop
  vertex 86.0165 70.5699 9.39712
  vertex 85.3907 73.4391 14.5024
  vertex 73.5949 72.1261 9.89342
  endloop
 endfacet

 facet normal 0.0999975 0.870524 0.481859
  outer loop
  vertex 85.9489 81.8005 9.14997
  vertex 85.3907 78.9019 14.5024
  vertex 93.9251 79.9543 10.8299
  endloop
 endfacet

 facet normal 0.116509 -0.778194 -0.617122
  outer loop
  vertex 86.0165 70.5699 9.39712
  vertex 85.1845 74.0341 4.8716
  vertex 90.0495 74.9506 4.63439
  endloop
 endfacet

 facet normal 0.184857 -0.796328 -0.575925
  outer loop
  vertex 90.0495 74.9506 4.63439
  vertex 94.2223 72.1186 9.88963
  vertex 86.0165 70.5699 9.39712
  endloop
 endfacet

 facet normal 0.833271 -0.542371 -0.107207
  outer loop
  vertex 94.2223 72.1186 9.88963
  vertex 97.0741 77.0975 6.86609
  vertex 96.9529 76.1705 10.6142
  endloop
 endfacet

 facet normal 0.0697684 0.663243 -0.745145
  outer loop
  vertex 85.8851 77.2306 5.07644
  vertex 85.9489 81.8005 9.14997
  vertex 93.76 80.0216 8.29802
  endloop
 endfacet

 facet normal -0.586168 0.751574 -0.302561
  outer loop
  vertex 71.9637 77.339 6.27204
  vertex 68.4344 76.0927 10.0137
  vertex 73.7293 80.2119 9.98794
  endloop
 endfacet

 facet normal -0.113299 -0.798886 -0.590715
  outer loop
  vertex 79.9195 75.0565 4.49879
  vertex 85.1845 74.0341 4.8716
  vertex 86.0165 70.5699 9.39712
  endloop
 endfacet

 facet normal -0.12395 -0.80375 -0.581913
  outer loop
  vertex 86.0165 70.5699 9.39712
  vertex 73.5949 72.1261 9.89342
  vertex 79.9195 75.0565 4.49879
  endloop
 endfacet

 facet normal -0.334703 -0.606032 -0.721595
  outer loop
  vertex 71.9637 77.339 6.27204
  vertex 79.9195 75.0565 4.49879
  vertex 73.5949 72.1261 9.89342
  endloop
 endfacet

 facet normal -0.474363 -0.597544 -0.646468
  outer loop
  vertex 73.5949 72.1261 9.89342
  vertex 68.4344 76.0927 10.0137
  vertex 71.9637 77.339 6.27204
  endloop
 endfacet

 facet normal 0.137624 0.55704 -0.819003
  outer loop
  vertex 97.0741 77.0975 6.86609
  vertex 85.8851 77.2306 5.07644
  vertex 93.76 80.0216 8.29802
  endloop
 endfacet

 facet normal -0.136476 0.660241 -0.73855
  outer loop
  vertex 85.8851 77.2306 5.07644
  vertex 73.7293 80.2119 9.98794
  vertex 85.9489 81.8005 9.14997
  endloop
 endfacet

 facet normal 0.170514 0.864861 0.472165
  outer loop
  vertex 80.2901 59.794 0.246074
  vertex 85.8851 56.0538 5.07644
  vertex 87.4213 58.388 0.246074
  endloop
 endfacet

 facet normal 0.433569 0.749596 0.500124
  outer loop
  vertex 87.4213 58.388 0.246074
  vertex 85.8851 56.0538 5.07644
  vertex 90.1946 55.3548 2.38814
  endloop
 endfacet

 facet normal 0.946672 -0.289074 -0.142295
  outer loop
  vertex 88.7259 51.5993 0.246074
  vertex 90.1946 55.3548 2.38814
  vertex 90.0495 53.7738 4.63439
  endloop
 endfacet

 facet normal -0.137895 0.699413 0.701289
  outer loop
  vertex 73.1588 58.388 0.246074
  vertex 85.8851 56.0538 5.07644
  vertex 80.2901 59.794 0.246074
  endloop
 endfacet

 facet normal -0.503175 0.303291 0.809215
  outer loop
  vertex 73.0909 54.9937 1.47601
  vertex 78.5597 55.9584 4.51498
  vertex 73.1588 58.388 0.246074
  endloop
 endfacet

 facet normal 0.208177 0.761266 0.614115
  outer loop
  vertex 93.8977 59.1497 9.85264
  vertex 85.3907 57.7251 14.5024
  vertex 88.7893 56.8977 14.376
  endloop
 endfacet

 facet normal -0.125275 -0.822425 0.554908
  outer loop
  vertex 73.5949 50.9493 9.89342
  vertex 85.3907 52.2623 14.5024
  vertex 79.3989 53.0897 14.376
  endloop
 endfacet

 facet normal 0.0417735 0.981245 -0.188182
  outer loop
  vertex 97.0741 55.9207 6.86609
  vertex 90.1946 55.3548 2.38814
  vertex 85.8851 56.0538 5.07644
  endloop
 endfacet

 facet normal -0.258677 -0.161791 -0.952318
  outer loop
  vertex 71.9637 56.1622 6.27204
  vertex 78.5597 55.9584 4.51498
  vertex 79.9195 53.8797 4.49879
  endloop
 endfacet

 facet normal 0.131886 -0.857149 0.497897
  outer loop
  vertex 85.3907 52.2623 14.5024
  vertex 86.0165 49.3931 9.39712
  vertex 94.2223 50.9418 9.88964
  endloop
 endfacet

 facet normal -0.0822984 0.87992 0.467939
  outer loop
  vertex 85.3907 57.7251 14.5024
  vertex 85.9489 60.6237 9.14997
  vertex 73.7293 59.0351 9.98794
  endloop
 endfacet

 facet normal 0.177843 -0.902032 0.393331
  outer loop
  vertex 81.5947 50.1933 0.246074
  vertex 88.7259 51.5993 0.246074
  vertex 90.0495 53.7738 4.63439
  endloop
 endfacet

 facet normal 0.189226 -0.907239 0.375648
  outer loop
  vertex 90.0495 53.7738 4.63439
  vertex 85.1845 52.8573 4.8716
  vertex 81.5947 50.1933 0.246074
  endloop
 endfacet

 facet normal 0.777825 0.603777 0.174474
  outer loop
  vertex 97.0741 55.9207 6.86609
  vertex 93.8977 59.1497 9.85264
  vertex 96.9529 54.9937 10.6142
  endloop
 endfacet

 facet normal -0.0450854 0.80057 -0.597541
  outer loop
  vertex 85.8851 56.0538 5.07644
  vertex 71.9637 56.1622 6.27204
  vertex 73.7293 59.0351 9.98794
  endloop
 endfacet

 facet normal 0.40338 -0.632555 -0.66118
  outer loop
  vertex 94.2223 50.9418 9.88964
  vertex 90.0495 53.7738 4.63439
  vertex 97.0741 55.9207 6.86609
  endloop
 endfacet

 facet normal 0.170514 0.864861 0.472165
  outer loop
  vertex 80.2901 80.9708 0.246074
  vertex 85.8851 77.2306 5.07644
  vertex 87.4213 79.5648 0.246074
  endloop
 endfacet

 facet normal 0.433568 0.749597 0.500124
  outer loop
  vertex 87.4213 79.5648 0.246074
  vertex 85.8851 77.2306 5.07644
  vertex 90.1947 76.5316 2.38814
  endloop
 endfacet

 facet normal 0.946672 -0.289075 -0.142296
  outer loop
  vertex 88.7259 72.7761 0.246074
  vertex 90.1947 76.5316 2.38814
  vertex 90.0495 74.9506 4.63439
  endloop
 endfacet

 facet normal -0.137895 0.699413 0.701289
  outer loop
  vertex 73.1588 79.5648 0.246074
  vertex 85.8851 77.2306 5.07644
  vertex 80.2901 80.9708 0.246074
  endloop
 endfacet

 facet normal -0.503175 0.303291 0.809215
  outer loop
  vertex 73.0909 76.1705 1.47601
  vertex 78.5597 77.1352 4.51498
  vertex 73.1588 79.5648 0.246074
  endloop
 endfacet

 facet normal 0.199304 0.716511 0.668498
  outer loop
  vertex 93.9251 79.9543 10.8299
  vertex 85.3907 78.9019 14.5024
  vertex 88.7893 78.0745 14.376
  endloop
 endfacet

 facet normal -0.125274 -0.822426 0.554907
  outer loop
  vertex 73.5949 72.1261 9.89342
  vertex 85.3907 73.4391 14.5024
  vertex 79.3989 74.2665 14.376
  endloop
 endfacet

 facet normal 0.0417732 0.981245 -0.188182
  outer loop
  vertex 97.0741 77.0975 6.86609
  vertex 90.1947 76.5316 2.38814
  vertex 85.8851 77.2306 5.07644
  endloop
 endfacet

 facet normal -0.258677 -0.161791 -0.952318
  outer loop
  vertex 71.9637 77.339 6.27204
  vertex 78.5597 77.1352 4.51498
  vertex 79.9195 75.0565 4.49879
  endloop
 endfacet

 facet normal 0.131886 -0.857149 0.497898
  outer loop
  vertex 85.3907 73.4391 14.5024
  vertex 86.0165 70.5699 9.39712
  vertex 94.2223 72.1186 9.88963
  endloop
 endfacet

 facet normal -0.0822987 0.879921 0.467938
  outer loop
  vertex 85.3907 78.9019 14.5024
  vertex 85.9489 81.8005 9.14997
  vertex 73.7293 80.2119 9.98794
  endloop
 endfacet

 facet normal 0.223208 0.974705 0.0113454
  outer loop
  vertex 93.9251 79.9543 10.8299
  vertex 93.76 80.0216 8.29802
  vertex 85.9489 81.8005 9.14997
  endloop
 endfacet

 facet normal -0.0450853 0.800571 -0.59754
  outer loop
  vertex 85.8851 77.2306 5.07644
  vertex 71.9637 77.339 6.27204
  vertex 73.7293 80.2119 9.98794
  endloop
 endfacet

 facet normal 0.403381 -0.632555 -0.661179
  outer loop
  vertex 94.2223 72.1186 9.88963
  vertex 90.0495 74.9506 4.63439
  vertex 97.0741 77.0975 6.86609
  endloop
 endfacet

 facet normal -0.387627 -0.310659 0.867892
  outer loop
  vertex 53.0843 54.406 40.7366
  vertex 65.8851 51.3159 45.3478
  vertex 73.4133 65.5054 53.7891
  endloop
 endfacet

 facet normal -0.310448 -0.428971 0.848296
  outer loop
  vertex 73.4133 65.5054 53.7891
  vertex 53.0985 65.5054 46.3546
  vertex 53.0843 54.406 40.7366
  endloop
 endfacet

 facet normal -0.243081 0.563654 -0.789433
  outer loop
  vertex 54.9364 76.974 14.1748
  vertex 73.0883 65.5208 0.407989
  vertex 44.327 65.5054 9.25306
  endloop
 endfacet

 facet normal -0.387626 0.31066 0.867892
  outer loop
  vertex 73.4133 65.5054 53.7891
  vertex 65.8851 79.6948 45.3478
  vertex 53.0843 76.6047 40.7366
  endloop
 endfacet

 facet normal -0.310448 0.428971 0.848296
  outer loop
  vertex 53.0843 76.6047 40.7366
  vertex 53.0985 65.5054 46.3546
  vertex 73.4133 65.5054 53.7891
  endloop
 endfacet

 facet normal -0.189379 -0.885307 -0.424696
  outer loop
  vertex 66.3516 45.111 27.691
  vertex 44.5314 49.6379 27.9843
  vertex 54.9364 54.0368 14.1748
  endloop
 endfacet

 facet normal -0.188235 0.92812 0.321187
  outer loop
  vertex 65.8851 79.6948 45.3478
  vertex 66.3516 85.8998 27.691
  vertex 44.5314 81.3728 27.9843
  endloop
 endfacet

 facet normal -0.375392 0.757002 0.534817
  outer loop
  vertex 44.5314 81.3728 27.9843
  vertex 53.0843 76.6047 40.7366
  vertex 65.8851 79.6948 45.3478
  endloop
 endfacet

 facet normal 0.082307 0.939557 0.332353
  outer loop
  vertex 94.8293 84.8384 23.639
  vertex 66.3516 85.8998 27.691
  vertex 65.8851 79.6948 45.3478
  endloop
 endfacet

 facet normal 0.0621485 0.949415 0.307812
  outer loop
  vertex 65.8851 79.6948 45.3478
  vertex 94.4014 79.3649 40.6078
  vertex 94.8293 84.8384 23.639
  endloop
 endfacet

 facet normal 0.0823071 -0.939557 0.332353
  outer loop
  vertex 65.8851 51.3159 45.3478
  vertex 66.3516 45.111 27.691
  vertex 94.8293 46.1723 23.639
  endloop
 endfacet

 facet normal 0.0621483 -0.949415 0.307812
  outer loop
  vertex 94.8293 46.1723 23.639
  vertex 94.4014 51.6458 40.6078
  vertex 65.8851 51.3159 45.3478
  endloop
 endfacet

 facet normal -0.199531 0.886712 -0.417049
  outer loop
  vertex 66.3516 85.8998 27.691
  vertex 86.2943 80.9099 7.54044
  vertex 54.9364 76.974 14.1748
  endloop
 endfacet

 facet normal -0.237977 -0.568177 -0.787745
  outer loop
  vertex 86.2943 50.1008 7.54045
  vertex 54.9364 54.0368 14.1748
  vertex 73.0883 65.5208 0.407989
  endloop
 endfacet

 facet normal 0.317878 0.868451 -0.380456
  outer loop
  vertex 112.729 69.4122 3.38161
  vertex 86.2943 80.9099 7.54044
  vertex 94.8293 84.8384 23.639
  endloop
 endfacet

 facet normal 0.355325 0.867953 -0.346989
  outer loop
  vertex 94.8293 84.8384 23.639
  vertex 109.476 75.3905 15.0044
  vertex 112.729 69.4122 3.38161
  endloop
 endfacet

 facet normal 0.00230077 0.971208 -0.238223
  outer loop
  vertex 86.2943 80.9099 7.54044
  vertex 66.3516 85.8998 27.691
  vertex 94.8293 84.8384 23.639
  endloop
 endfacet

 facet normal 0.142081 -0.560677 0.815754
  outer loop
  vertex 65.8851 51.3159 45.3478
  vertex 94.4014 51.6458 40.6078
  vertex 73.4133 65.5054 53.7891
  endloop
 endfacet

 facet normal 0.414624 0.21344 0.884608
  outer loop
  vertex 94.4014 79.3649 40.6078
  vertex 73.4133 65.5054 53.7891
  vertex 101.722 65.5054 40.5204
  endloop
 endfacet

 facet normal 0.625524 0.737786 0.253755
  outer loop
  vertex 94.8293 84.8384 23.639
  vertex 94.4014 79.3649 40.6078
  vertex 109.476 75.3905 15.0044
  endloop
 endfacet

 facet normal -0.375393 -0.757001 0.534818
  outer loop
  vertex 65.8851 51.3159 45.3478
  vertex 53.0843 54.406 40.7366
  vertex 44.5314 49.6379 27.9843
  endloop
 endfacet

 facet normal -0.188235 -0.92812 0.321187
  outer loop
  vertex 44.5314 49.6379 27.9843
  vertex 66.3516 45.111 27.691
  vertex 65.8851 51.3159 45.3478
  endloop
 endfacet

 facet normal -0.000767963 0.612103 -0.790778
  outer loop
  vertex 132.917 65.5054 0.337901
  vertex 73.0883 65.5208 0.407989
  vertex 112.729 69.4122 3.38161
  endloop
 endfacet

 facet normal -0.0649018 0.382625 -0.921621
  outer loop
  vertex 112.729 69.4122 3.38161
  vertex 132.119 67.7002 1.30537
  vertex 132.917 65.5054 0.337901
  endloop
 endfacet

 facet normal 0.84045 -0.441969 0.313539
  outer loop
  vertex 94.4014 51.6458 40.6078
  vertex 113.832 61.8165 2.86149
  vertex 101.722 65.5054 40.5204
  endloop
 endfacet

 facet normal 0.0295351 0.399349 -0.916323
  outer loop
  vertex 73.0883 65.5208 0.407989
  vertex 86.2943 80.9099 7.54044
  vertex 112.729 69.4122 3.38161
  endloop
 endfacet

 facet normal 0.931154 0.139381 0.336934
  outer loop
  vertex 109.476 75.3905 15.0044
  vertex 101.722 65.5054 40.5204
  vertex 113.8 64.5999 7.51595
  endloop
 endfacet

 facet normal -0.00810446 0.650592 0.759384
  outer loop
  vertex 112.729 69.4122 3.38161
  vertex 113.8 64.5999 7.51595
  vertex 132.917 65.5054 6.94421
  endloop
 endfacet

 facet normal -0.0905223 0.373923 0.923032
  outer loop
  vertex 132.917 65.5054 6.94421
  vertex 132.119 67.7002 5.97674
  vertex 112.729 69.4122 3.38161
  endloop
 endfacet

 facet normal -0.0119801 -0.640397 -0.76795
  outer loop
  vertex 133.716 63.3105 1.30537
  vertex 113.832 61.8165 2.86149
  vertex 73.0883 65.5208 0.407989
  endloop
 endfacet

 facet normal -0.00117623 -0.403707 -0.914887
  outer loop
  vertex 73.0883 65.5208 0.407989
  vertex 132.917 65.5054 0.337901
  vertex 133.716 63.3105 1.30537
  endloop
 endfacet

 facet normal 0.0344264 0.932983 0.358271
  outer loop
  vertex 112.729 69.4122 3.38161
  vertex 132.119 67.7002 5.97674
  vertex 131.788 68.6093 3.64106
  endloop
 endfacet

 facet normal 0.0050401 -0.858221 0.513255
  outer loop
  vertex 113.8 64.5999 7.51595
  vertex 113.832 61.8165 2.86149
  vertex 134.047 62.4014 3.64106
  endloop
 endfacet

 facet normal -0.0326909 -0.932955 0.358506
  outer loop
  vertex 134.047 62.4014 3.64106
  vertex 133.716 63.3105 5.97674
  vertex 113.8 64.5999 7.51595
  endloop
 endfacet

 facet normal -0.146902 0.914574 -0.376795
  outer loop
  vertex 140.687 68.5387 -6.14904e-07
  vertex 132.119 67.7002 1.30537
  vertex 131.788 68.6093 3.64106
  endloop
 endfacet

 facet normal -0.132585 0.930261 -0.342106
  outer loop
  vertex 131.788 68.6093 3.64106
  vertex 139.504 70.6723 6.26034
  vertex 140.687 68.5387 -6.14904e-07
  endloop
 endfacet

 facet normal 0.0459385 -0.388877 0.920144
  outer loop
  vertex 113.8 64.5999 7.51595
  vertex 133.716 63.3105 5.97674
  vertex 132.917 65.5054 6.94421
  endloop
 endfacet

 facet normal 0.207416 -0.330381 0.920775
  outer loop
  vertex 132.917 65.5054 6.94421
  vertex 133.716 63.3105 5.97674
  vertex 143.909 67.0335 5.01645
  endloop
 endfacet

 facet normal 0.18631 -0.108255 0.976509
  outer loop
  vertex 143.909 67.0335 5.01645
  vertex 139.504 70.6723 6.26034
  vertex 132.917 65.5054 6.94421
  endloop
 endfacet

 facet normal 0.436162 -0.815979 -0.379395
  outer loop
  vertex 143.909 67.0335 5.01645
  vertex 134.047 62.4014 3.64106
  vertex 133.716 63.3105 1.30537
  endloop
 endfacet

 facet normal 0.452822 -0.73117 -0.510238
  outer loop
  vertex 133.716 63.3105 1.30537
  vertex 140.687 68.5387 -6.14904e-07
  vertex 143.909 67.0335 5.01645
  endloop
 endfacet

 facet normal -0.785512 0.525124 -0.327438
  outer loop
  vertex 147.29 78.4661 0.0803954
  vertex 140.687 68.5387 -6.14904e-07
  vertex 139.504 70.6723 6.26034
  endloop
 endfacet

 facet normal -0.775065 0.365751 -0.515267
  outer loop
  vertex 139.504 70.6723 6.26034
  vertex 144.689 79.8824 4.99858
  vertex 147.29 78.4661 0.0803954
  endloop
 endfacet

 facet normal -0.1742 0.343404 -0.922891
  outer loop
  vertex 132.917 65.5054 0.337901
  vertex 132.119 67.7002 1.30537
  vertex 140.687 68.5387 -6.14904e-07
  endloop
 endfacet

 facet normal 0.103985 -0.369229 -0.923503
  outer loop
  vertex 133.716 63.3105 1.30537
  vertex 132.917 65.5054 0.337901
  vertex 140.687 68.5387 -6.14904e-07
  endloop
 endfacet

 facet normal 0.758017 -0.302753 -0.577712
  outer loop
  vertex 150 79.4612 6.49511
  vertex 143.909 67.0335 5.01645
  vertex 140.687 68.5387 -6.14904e-07
  endloop
 endfacet

 facet normal 0.805529 -0.533701 -0.257461
  outer loop
  vertex 140.687 68.5387 -6.14904e-07
  vertex 147.29 78.4661 0.0803954
  vertex 150 79.4612 6.49511
  endloop
 endfacet

 facet normal -0.242118 0.264204 0.933582
  outer loop
  vertex 139.504 70.6723 6.26034
  vertex 150 79.4612 6.49511
  vertex 144.689 79.8824 4.99858
  endloop
 endfacet

 facet normal 0.883562 0.228672 -0.40869
  outer loop
  vertex 146.996 91.0664 6.4946
  vertex 150 79.4612 6.49511
  vertex 147.29 78.4661 0.0803954
  endloop
 endfacet

 facet normal 0.910884 0.203898 -0.358769
  outer loop
  vertex 147.29 78.4661 0.0803954
  vertex 144.77 90.0963 0.290828
  vertex 146.996 91.0664 6.4946
  endloop
 endfacet

 facet normal -0.889716 -0.18527 -0.417229
  outer loop
  vertex 144.77 90.0963 0.290828
  vertex 147.29 78.4661 0.0803954
  vertex 144.689 79.8824 4.99858
  endloop
 endfacet

 facet normal -0.665507 -0.308086 -0.67984
  outer loop
  vertex 144.689 79.8824 4.99858
  vertex 139.921 90.2 4.99066
  vertex 144.77 90.0963 0.290828
  endloop
 endfacet

 facet normal 0.609453 0.720262 -0.331344
  outer loop
  vertex 137.932 98.0376 4.97654
  vertex 146.996 91.0664 6.4946
  vertex 144.77 90.0963 0.290828
  endloop
 endfacet

 facet normal 0.738962 0.671148 -0.0591184
  outer loop
  vertex 144.77 90.0963 0.290828
  vertex 138.834 96.717 1.25566
  vertex 137.932 98.0376 4.97654
  endloop
 endfacet

 facet normal -0.201522 -0.0521169 0.978096
  outer loop
  vertex 150 79.4612 6.49511
  vertex 146.996 91.0664 6.4946
  vertex 139.921 90.2 4.99066
  endloop
 endfacet

 facet normal -0.264243 -0.930928 -0.252087
  outer loop
  vertex 109.791 100.009 0.348987
  vertex 144.77 90.0963 0.290828
  vertex 139.921 90.2 4.99066
  endloop
 endfacet

 facet normal -0.237663 -0.901338 -0.362086
  outer loop
  vertex 139.921 90.2 4.99066
  vertex 112.064 97.5094 5.08023
  vertex 109.791 100.009 0.348987
  endloop
 endfacet

 facet normal 0.0521007 0.189595 -0.980479
  outer loop
  vertex 138.834 96.717 1.25566
  vertex 144.77 90.0963 0.290828
  vertex 109.791 100.009 0.348987
  endloop
 endfacet

 facet normal -0.333694 -0.907469 -0.255242
  outer loop
  vertex 42.4406 54.0599 14.9961
  vertex 44.5314 49.6379 27.9843
  vertex 17.8794 57.0517 36.4697
  endloop
 endfacet

 facet normal -0.58216 -0.562013 -0.587564
  outer loop
  vertex 17.8794 57.0517 36.4697
  vertex 24.6019 61.914 25.1582
  vertex 42.4406 54.0599 14.9961
  endloop
 endfacet

 facet normal -0.135866 -0.556745 0.819497
  outer loop
  vertex 146.996 91.0664 6.4946
  vertex 98.6341 103.207 6.7246
  vertex 112.064 97.5094 5.08023
  endloop
 endfacet

 facet normal 0.180032 0.939951 -0.289966
  outer loop
  vertex 137.932 98.0376 4.97654
  vertex 138.834 96.717 1.25566
  vertex 97.6099 104.889 2.15108
  endloop
 endfacet

 facet normal 0.137542 0.939207 0.314599
  outer loop
  vertex 137.932 98.0376 4.97654
  vertex 97.6099 104.889 2.15108
  vertex 98.6341 103.207 6.7246
  endloop
 endfacet

 facet normal -0.0312211 -0.889856 -0.455172
  outer loop
  vertex 109.791 100.009 0.348987
  vertex 112.064 97.5094 5.08023
  vertex 69.7673 101.069 1.02261
  endloop
 endfacet

 facet normal 0.0152475 0.379659 -0.925001
  outer loop
  vertex 109.791 100.009 0.348987
  vertex 69.9059 101.414 0.268241
  vertex 97.6099 104.889 2.15108
  endloop
 endfacet

 facet normal -0.202869 0.510471 0.835622
  outer loop
  vertex 98.6341 103.207 6.7246
  vertex 69.903 101.829 0.59137
  vertex 69.7673 101.069 1.02261
  endloop
 endfacet

 facet normal -0.0227162 0.947505 -0.318934
  outer loop
  vertex 44.5314 81.3728 27.9843
  vertex 54.9364 76.974 14.1748
  vertex 42.4406 76.9508 14.9961
  endloop
 endfacet

 facet normal -0.0597102 -0.439801 -0.896108
  outer loop
  vertex 54.9364 54.0368 14.1748
  vertex 42.4406 54.0599 14.9961
  vertex 44.327 65.5054 9.25306
  endloop
 endfacet

 facet normal 0.172925 -0.444975 0.878689
  outer loop
  vertex 53.0985 65.5054 46.3546
  vertex 34.9486 65.5054 49.9265
  vertex 53.0843 54.406 40.7366
  endloop
 endfacet

 facet normal 0.057808 0.578942 0.813317
  outer loop
  vertex 34.9486 65.5054 49.9265
  vertex 53.0843 76.6047 40.7366
  vertex 23.2612 72.4561 45.8095
  endloop
 endfacet

 facet normal -0.0623815 -0.920397 0.385976
  outer loop
  vertex 53.0843 54.406 40.7366
  vertex 23.2612 58.5547 45.8095
  vertex 44.5314 49.6379 27.9843
  endloop
 endfacet

 facet normal -0.639452 0.258016 -0.724244
  outer loop
  vertex 26.0662 72.4134 27.837
  vertex 42.4406 76.9508 14.9961
  vertex 44.327 65.5054 9.25306
  endloop
 endfacet

 facet normal -0.633483 0.273064 -0.723972
  outer loop
  vertex 44.327 65.5054 9.25306
  vertex 24.6019 61.914 25.1582
  vertex 26.0662 72.4134 27.837
  endloop
 endfacet

 facet normal -0.333693 0.907469 -0.255243
  outer loop
  vertex 17.8794 73.959 36.4697
  vertex 44.5314 81.3728 27.9843
  vertex 42.4406 76.9508 14.9961
  endloop
 endfacet

 facet normal -0.632866 0.388499 -0.669738
  outer loop
  vertex 42.4406 76.9508 14.9961
  vertex 26.0662 72.4134 27.837
  vertex 17.8794 73.959 36.4697
  endloop
 endfacet

 facet normal -0.181972 0.948971 0.257566
  outer loop
  vertex 23.2612 72.4561 45.8095
  vertex 44.5314 81.3728 27.9843
  vertex 17.8794 73.959 36.4697
  endloop
 endfacet

 facet normal -0.182122 0.266858 -0.946371
  outer loop
  vertex 26.0662 72.4134 27.837
  vertex 24.6019 61.914 25.1582
  vertex 7.84222 63.3587 28.7908
  endloop
 endfacet

 facet normal -0.133728 0.166234 -0.976977
  outer loop
  vertex 7.84222 63.3587 28.7908
  vertex 5.93944 67.9599 29.8342
  vertex 26.0662 72.4134 27.837
  endloop
 endfacet

 facet normal -0.245667 -0.153807 0.957074
  outer loop
  vertex 23.2612 58.5547 45.8095
  vertex 34.9486 65.5054 49.9265
  vertex 9.80998 65.5054 43.4738
  endloop
 endfacet

 facet normal -0.235645 0.89303 -0.383366
  outer loop
  vertex 26.0662 72.4134 27.837
  vertex 5.93944 67.9599 29.8342
  vertex 17.8794 73.959 36.4697
  endloop
 endfacet

 facet normal -0.411385 -0.890623 -0.193787
  outer loop
  vertex 7.84222 63.3587 28.7908
  vertex 17.8794 57.0517 36.4697
  vertex -1.15677e-06 65.5054 35.5733
  endloop
 endfacet

 facet normal -0.454263 0.689556 0.564054
  outer loop
  vertex 23.2612 72.4561 45.8095
  vertex -1.15677e-06 65.5054 35.5733
  vertex 9.80998 65.5054 43.4738
  endloop
 endfacet

 facet normal -0.412035 -0.832075 0.37132
  outer loop
  vertex 17.8794 57.0517 36.4697
  vertex 23.2612 58.5547 45.8095
  vertex -1.15677e-06 65.5054 35.5733
  endloop
 endfacet

 facet normal -0.667138 -0.108782 -0.736949
  outer loop
  vertex 7.84222 63.3587 28.7908
  vertex -1.15677e-06 65.5054 35.5733
  vertex 5.93944 67.9599 29.8342
  endloop
 endfacet

 facet normal -0.242587 -0.563355 -0.789799
  outer loop
  vertex 73.0883 65.5208 0.407989
  vertex 54.9364 54.0368 14.1748
  vertex 44.327 65.5054 9.25306
  endloop
 endfacet

 facet normal -0.189379 0.885308 -0.424695
  outer loop
  vertex 44.5314 81.3728 27.9843
  vertex 66.3516 85.8998 27.691
  vertex 54.9364 76.974 14.1748
  endloop
 endfacet

 facet normal -0.237955 0.569022 -0.787141
  outer loop
  vertex 54.9364 76.974 14.1748
  vertex 86.2943 80.9099 7.54044
  vertex 73.0883 65.5208 0.407989
  endloop
 endfacet

 facet normal -0.199531 -0.886712 -0.417049
  outer loop
  vertex 86.2943 50.1008 7.54045
  vertex 66.3516 45.111 27.691
  vertex 54.9364 54.0368 14.1748
  endloop
 endfacet

 facet normal 0.00230113 -0.971208 -0.238223
  outer loop
  vertex 66.3516 45.111 27.691
  vertex 86.2943 50.1008 7.54045
  vertex 94.8293 46.1723 23.639
  endloop
 endfacet

 facet normal 0.142082 0.560677 0.815754
  outer loop
  vertex 94.4014 79.3649 40.6078
  vertex 65.8851 79.6948 45.3478
  vertex 73.4133 65.5054 53.7891
  endloop
 endfacet

 facet normal 0.414624 -0.21344 0.884608
  outer loop
  vertex 73.4133 65.5054 53.7891
  vertex 94.4014 51.6458 40.6078
  vertex 101.722 65.5054 40.5204
  endloop
 endfacet

 facet normal 0.946463 0.304022 0.108532
  outer loop
  vertex 112.729 69.4122 3.38161
  vertex 109.476 75.3905 15.0044
  vertex 113.8 64.5999 7.51595
  endloop
 endfacet

 facet normal 0.307804 -0.87382 -0.376425
  outer loop
  vertex 94.8293 46.1723 23.639
  vertex 86.2943 50.1008 7.54045
  vertex 113.832 61.8165 2.86149
  endloop
 endfacet

 facet normal 0.751854 -0.621719 0.219501
  outer loop
  vertex 94.4014 51.6458 40.6078
  vertex 94.8293 46.1723 23.639
  vertex 113.832 61.8165 2.86149
  endloop
 endfacet

 facet normal 0.807671 0.424049 0.409696
  outer loop
  vertex 109.476 75.3905 15.0044
  vertex 94.4014 79.3649 40.6078
  vertex 101.722 65.5054 40.5204
  endloop
 endfacet

 facet normal 0.0179888 -0.407012 -0.913246
  outer loop
  vertex 86.2943 50.1008 7.54045
  vertex 73.0883 65.5208 0.407989
  vertex 113.832 61.8165 2.86149
  endloop
 endfacet

 facet normal 0.804951 -0.506847 0.30848
  outer loop
  vertex 101.722 65.5054 40.5204
  vertex 113.832 61.8165 2.86149
  vertex 113.8 64.5999 7.51595
  endloop
 endfacet

 facet normal 0.0441667 0.933086 -0.356931
  outer loop
  vertex 132.119 67.7002 1.30537
  vertex 112.729 69.4122 3.38161
  vertex 131.788 68.6093 3.64106
  endloop
 endfacet

 facet normal 0.0410548 -0.929131 -0.367464
  outer loop
  vertex 134.047 62.4014 3.64106
  vertex 113.832 61.8165 2.86149
  vertex 133.716 63.3105 1.30537
  endloop
 endfacet

 facet normal -0.357572 0.852048 0.382304
  outer loop
  vertex 131.788 68.6093 3.64106
  vertex 132.119 67.7002 5.97674
  vertex 139.504 70.6723 6.26034
  endloop
 endfacet

 facet normal -0.173712 0.343592 0.922913
  outer loop
  vertex 132.119 67.7002 5.97674
  vertex 132.917 65.5054 6.94421
  vertex 139.504 70.6723 6.26034
  endloop
 endfacet

 facet normal 0.348572 -0.855704 0.38245
  outer loop
  vertex 133.716 63.3105 5.97674
  vertex 134.047 62.4014 3.64106
  vertex 143.909 67.0335 5.01645
  endloop
 endfacet

 facet normal 0.127835 -0.178722 0.97556
  outer loop
  vertex 139.504 70.6723 6.26034
  vertex 143.909 67.0335 5.01645
  vertex 150 79.4612 6.49511
  endloop
 endfacet

 facet normal -0.278381 -0.127922 0.951914
  outer loop
  vertex 144.689 79.8824 4.99858
  vertex 150 79.4612 6.49511
  vertex 139.921 90.2 4.99066
  endloop
 endfacet

 facet normal -0.124541 -0.485253 0.865459
  outer loop
  vertex 139.921 90.2 4.99066
  vertex 146.996 91.0664 6.4946
  vertex 112.064 97.5094 5.08023
  endloop
 endfacet

 facet normal 0.0834188 0.314383 0.945624
  outer loop
  vertex 146.996 91.0664 6.4946
  vertex 137.932 98.0376 4.97654
  vertex 98.6341 103.207 6.7246
  endloop
 endfacet

 facet normal 0.0861563 0.527245 -0.845334
  outer loop
  vertex 97.6099 104.889 2.15108
  vertex 138.834 96.717 1.25566
  vertex 109.791 100.009 0.348987
  endloop
 endfacet

 facet normal -0.125202 -0.536041 0.834856
  outer loop
  vertex 112.064 97.5094 5.08023
  vertex 98.6341 103.207 6.7246
  vertex 69.7673 101.069 1.02261
  endloop
 endfacet

 facet normal -0.0310866 -0.906603 -0.420838
  outer loop
  vertex 69.9059 101.414 0.268241
  vertex 109.791 100.009 0.348987
  vertex 69.7673 101.069 1.02261
  endloop
 endfacet

 facet normal -0.122505 0.922273 0.366613
  outer loop
  vertex 98.6341 103.207 6.7246
  vertex 97.6099 104.889 2.15108
  vertex 69.903 101.829 0.59137
  endloop
 endfacet

 facet normal -0.0234981 0.614604 -0.788486
  outer loop
  vertex 97.6099 104.889 2.15108
  vertex 69.9059 101.414 0.268241
  vertex 69.903 101.829 0.59137
  endloop
 endfacet

 facet normal -0.0597105 0.439801 -0.896108
  outer loop
  vertex 42.4406 76.9508 14.9961
  vertex 54.9364 76.974 14.1748
  vertex 44.327 65.5054 9.25306
  endloop
 endfacet

 facet normal 0.172925 0.444974 0.878689
  outer loop
  vertex 34.9486 65.5054 49.9265
  vertex 53.0985 65.5054 46.3546
  vertex 53.0843 76.6047 40.7366
  endloop
 endfacet

 facet normal -0.0227157 -0.947505 -0.318933
  outer loop
  vertex 54.9364 54.0368 14.1748
  vertex 44.5314 49.6379 27.9843
  vertex 42.4406 54.0599 14.9961
  endloop
 endfacet

 facet normal 0.0578081 -0.578942 0.813317
  outer loop
  vertex 53.0843 54.406 40.7366
  vertex 34.9486 65.5054 49.9265
  vertex 23.2612 58.5547 45.8095
  endloop
 endfacet

 facet normal -0.0623814 0.920397 0.385976
  outer loop
  vertex 23.2612 72.4561 45.8095
  vertex 53.0843 76.6047 40.7366
  vertex 44.5314 81.3728 27.9843
  endloop
 endfacet

 facet normal -0.181973 -0.948971 0.257565
  outer loop
  vertex 44.5314 49.6379 27.9843
  vertex 23.2612 58.5547 45.8095
  vertex 17.8794 57.0517 36.4697
  endloop
 endfacet

 facet normal -0.567346 -0.292708 -0.769701
  outer loop
  vertex 44.327 65.5054 9.25306
  vertex 42.4406 54.0599 14.9961
  vertex 24.6019 61.914 25.1582
  endloop
 endfacet

 facet normal -0.177383 -0.861511 -0.475745
  outer loop
  vertex 7.84222 63.3587 28.7908
  vertex 24.6019 61.914 25.1582
  vertex 17.8794 57.0517 36.4697
  endloop
 endfacet

 facet normal -0.245667 0.153807 0.957074
  outer loop
  vertex 34.9486 65.5054 49.9265
  vertex 23.2612 72.4561 45.8095
  vertex 9.80998 65.5054 43.4738
  endloop
 endfacet

 facet normal -0.454262 -0.689557 0.564054
  outer loop
  vertex -1.15677e-06 65.5054 35.5733
  vertex 23.2612 58.5547 45.8095
  vertex 9.80998 65.5054 43.4738
  endloop
 endfacet

 facet normal -0.412036 0.832073 0.371322
  outer loop
  vertex 23.2612 72.4561 45.8095
  vertex 17.8794 73.959 36.4697
  vertex -1.15677e-06 65.5054 35.5733
  endloop
 endfacet

 facet normal -0.424676 0.903795 -0.0529558
  outer loop
  vertex 17.8794 73.959 36.4697
  vertex 5.93944 67.9599 29.8342
  vertex -1.15677e-06 65.5054 35.5733
  endloop
 endfacet

endsolid AssimpScene
