solid AssimpScene
 facet normal -0.93266 -0.146222 -0.329796
  outer loop
  vertex -3.38765 -27.3647 9.53139
  vertex -6.25943 -18.5033 13.7239
  vertex -4.24352 -17.599 7.62195
  endloop
 endfacet

 facet normal -0.365252 -0.269471 0.891053
  outer loop
  vertex -0.0979809 -17.1432 19.527
  vertex -10.6706 -12.7198 16.5309
  vertex -4.23008 -19.3299 17.1719
  endloop
 endfacet

 facet normal -0.784751 -0.52057 -0.336411
  outer loop
  vertex -6.25943 -18.5033 13.7239
  vertex -7.13719 -14.9065 10.2056
  vertex -4.24352 -17.599 7.62195
  endloop
 endfacet

 facet normal 0.825357 -0.457195 -0.331298
  outer loop
  vertex 6.90995 -14.984 10.7049
  vertex 6.16748 -18.3778 13.5386
  vertex 4.28159 -17.5094 7.64195
  endloop
 endfacet

 facet normal -0.0711755 -0.415697 -0.906714
  outer loop
  vertex 15.9936 -14.1049 10.5184
  vertex 11.2167 -18.838 13.0634
  vertex 10.7113 -15.6752 11.653
  endloop
 endfacet

 facet normal 0.34407 -0.449102 -0.824575
  outer loop
  vertex 17.3091 -3.97429 5.66624
  vertex 13.2537 -12.1147 8.40769
  vertex 10.4236 -9.92017 6.03155
  endloop
 endfacet

 facet normal -0.575672 -0.554672 -0.600783
  outer loop
  vertex -17.6853 -4.05822 5.90257
  vertex -15.4493 -3.53916 3.28086
  vertex -13.0836 -10.9654 7.87024
  endloop
 endfacet

 facet normal -0.3078 -0.569215 -0.7624
  outer loop
  vertex -10.059 -9.60433 5.63295
  vertex -13.0836 -10.9654 7.87024
  vertex -15.4493 -3.53916 3.28086
  endloop
 endfacet

 facet normal 0.992318 -0.0864811 0.08847
  outer loop
  vertex 15.9936 -14.1049 10.5184
  vertex 17.3091 -3.97429 5.66624
  vertex 16.6269 -3.60669 13.6768
  endloop
 endfacet

 facet normal 0.373426 0.0846255 0.923792
  outer loop
  vertex 7.10485 13.7429 22.0532
  vertex 6.77599 0.471524 23.4018
  vertex 11.8613 8.6714 20.595
  endloop
 endfacet

 facet normal 0.163018 0.170635 -0.971756
  outer loop
  vertex 0.126973 13.2047 -0.722298
  vertex 13.5307 14.3864 1.73376
  vertex 13.0692 3.43148 -0.267276
  endloop
 endfacet

 facet normal -0.190721 0.0818513 0.978226
  outer loop
  vertex 0.0979876 12.2154 23.6467
  vertex -7.14408 14.3783 22.0537
  vertex -8.73418 7.07466 22.3548
  endloop
 endfacet

 facet normal 0.726469 0.629967 -0.274561
  outer loop
  vertex 14.7148 14.3527 4.78956
  vertex 19.6795 9.14368 5.97387
  vertex 13.5307 14.3864 1.73376
  endloop
 endfacet

 facet normal 0.188987 0.146107 0.971049
  outer loop
  vertex 0.0281569 19.4793 22.5673
  vertex 0.0979876 12.2154 23.6467
  vertex 7.10485 13.7429 22.0532
  endloop
 endfacet

 facet normal -0.976743 -0.0355943 0.211436
  outer loop
  vertex -19.5542 19.7062 -0.783581
  vertex -19.4716 17.0745 -0.845316
  vertex -18.8802 18.5491 2.13491
  endloop
 endfacet

 facet normal -0.97754 -0.0591832 0.202268
  outer loop
  vertex -19.5542 19.7062 -0.783581
  vertex -18.8802 18.5491 2.13491
  vertex -18.9942 20.2955 2.09523
  endloop
 endfacet

 facet normal 0.945239 -0.218661 0.242303
  outer loop
  vertex 19.6159 19.5812 -1.05531
  vertex 19.1066 19.3285 0.703459
  vertex 18.6702 17.6008 0.846858
  endloop
 endfacet

 facet normal 0.928923 -0.101603 0.356061
  outer loop
  vertex 19.6159 19.5812 -1.05531
  vertex 18.6702 17.6008 0.846858
  vertex 19.4603 17.32 -1.29449
  endloop
 endfacet

 facet normal -0.180638 0.285782 -0.941116
  outer loop
  vertex -16.8032 27.2188 8.12931
  vertex -14.6435 21.5985 6.00807
  vertex -15.9582 12.962 3.63785
  endloop
 endfacet

 facet normal -0.177767 0.366426 -0.913308
  outer loop
  vertex -7.9743 24.6697 3.81197
  vertex 0.239758 25.3945 2.50401
  vertex -14.1073 17.6411 2.18577
  endloop
 endfacet

 facet normal 0.684656 0.139524 0.715387
  outer loop
  vertex 14.5523 21.3615 5.6169
  vertex 19.1253 22.7338 0.972691
  vertex 18.5832 24.3031 1.18538
  endloop
 endfacet

 facet normal -0.186217 0.235991 -0.953746
  outer loop
  vertex -13.0045 29.9286 8.05813
  vertex -10.7942 25.5384 6.54027
  vertex -16.8032 27.2188 8.12931
  endloop
 endfacet

 facet normal 0.0436559 0.267934 -0.962448
  outer loop
  vertex 11.5559 25.1945 6.54805
  vertex 13.059 29.8962 7.92512
  vertex 14.5523 21.3615 5.6169
  endloop
 endfacet

 facet normal 0.285203 0.958411 -0.0103989
  outer loop
  vertex -13.5591 26.3171 2.47579
  vertex -10.7942 25.5384 6.54027
  vertex -7.9743 24.6697 3.81197
  endloop
 endfacet

 facet normal 0.441546 0.859964 0.255927
  outer loop
  vertex 0.239758 25.3945 2.50401
  vertex -5.14411 27.8713 3.47022
  vertex -4.0971 26.56 6.07011
  endloop
 endfacet

 facet normal -0.472645 0.861405 0.185978
  outer loop
  vertex 5.12208 27.8726 3.43408
  vertex 0.239758 25.3945 2.50401
  vertex 3.91604 26.6661 5.95741
  endloop
 endfacet

 facet normal -0.733685 -0.251967 0.631046
  outer loop
  vertex -11.4053 -1.45793 20.1734
  vertex -16.7375 -4.11258 12.9139
  vertex -10.6706 -12.7198 16.5309
  endloop
 endfacet

 facet normal 0.690508 -0.722651 0.031194
  outer loop
  vertex 4.24721 -31.3555 18.6705
  vertex -0.183518 -35.6287 17.7547
  vertex 2.94732 -32.8415 13.0193
  endloop
 endfacet

 facet normal 0.401094 0.507898 0.76234
  outer loop
  vertex 6.13035 22.8107 17.1373
  vertex 3.82328 34.8219 10.3488
  vertex 0.0281569 19.4793 22.5673
  endloop
 endfacet

 facet normal 0.432267 0.46523 0.772468
  outer loop
  vertex 7.10485 13.7429 22.0532
  vertex 16.5064 27.1509 8.71697
  vertex 6.13035 22.8107 17.1373
  endloop
 endfacet

 facet normal -0.413201 0.50946 0.754795
  outer loop
  vertex -5.39452 28.6911 13.3811
  vertex -16.8032 27.2188 8.12931
  vertex 0.0281569 19.4793 22.5673
  endloop
 endfacet

 facet normal -0.0377769 -0.487239 -0.872451
  outer loop
  vertex 0.0101782 -5.72861 -0.0038445
  vertex -8.40837 -15.2098 5.65567
  vertex -10.7504 -11.7538 3.82695
  endloop
 endfacet

 facet normal 0.393098 -0.453873 0.79967
  outer loop
  vertex -0.0979809 -17.1432 19.527
  vertex 10.0437 -13.251 16.7508
  vertex 0.572692 -7.6869 24.5645
  endloop
 endfacet

 facet normal -0.717415 0.200586 0.667144
  outer loop
  vertex -10.8355 -15.7404 11.7234
  vertex -13.0836 -10.9654 7.87024
  vertex -18.6389 -14.8556 3.06592
  endloop
 endfacet

 facet normal 0.568676 0.602573 0.559922
  outer loop
  vertex 8.02557 24.7457 3.8503
  vertex 5.12208 27.8726 3.43408
  vertex 3.91604 26.6661 5.95741
  endloop
 endfacet

 facet normal -0.601476 0.589269 0.539434
  outer loop
  vertex -5.14411 27.8713 3.47022
  vertex -7.9743 24.6697 3.81197
  vertex -4.0971 26.56 6.07011
  endloop
 endfacet

 facet normal 0.0512542 -0.474193 -0.878928
  outer loop
  vertex 0.0101782 -5.72861 -0.0038445
  vertex 10.9185 -11.4903 3.74076
  vertex 8.99611 -14.2717 5.12927
  endloop
 endfacet

 facet normal -0.475352 0.238607 -0.846822
  outer loop
  vertex -19.3778 20.095 7.56725
  vertex -16.8032 27.2188 8.12931
  vertex -15.9582 12.962 3.63785
  endloop
 endfacet

 facet normal -0.2393 -0.410135 -0.880071
  outer loop
  vertex -16.0596 -13.7032 9.95537
  vertex -17.6853 -4.05822 5.90257
  vertex -13.0836 -10.9654 7.87024
  endloop
 endfacet

 facet normal -0.206611 -0.592556 0.778582
  outer loop
  vertex -17.3161 -18.7372 0.162416
  vertex -14.8862 -19.6797 0.089928
  vertex -15.4142 -17.7848 1.39195
  endloop
 endfacet

 facet normal -0.158956 -0.0446356 0.986276
  outer loop
  vertex -6.81689 -1.56857 23.6504
  vertex 0.572692 -7.6869 24.5645
  vertex 0.18263 2.58106 24.9663
  endloop
 endfacet

 facet normal 0.160495 -0.378827 -0.911445
  outer loop
  vertex 8.99611 -14.2717 5.12927
  vertex -0.189299 -16.9789 4.63703
  vertex 0.0101782 -5.72861 -0.0038445
  endloop
 endfacet

 facet normal 0.890346 -0.0228068 0.454713
  outer loop
  vertex 16.4761 17.0775 12.6441
  vertex 19.6795 9.14368 5.97387
  vertex 19.3226 21.564 7.29559
  endloop
 endfacet

 facet normal -0.963714 -0.0148643 0.266523
  outer loop
  vertex -17.8458 9.17424 12.4976
  vertex -19.3778 20.095 7.56725
  vertex -19.685 9.24886 5.8517
  endloop
 endfacet

 facet normal -0.0530691 0.0256056 -0.998262
  outer loop
  vertex -19.0082 23.0069 -0.722115
  vertex -18.5384 25.1832 -0.691267
  vertex -16.1891 18.5396 -0.986568
  endloop
 endfacet

 facet normal 0.967903 -0.0367527 -0.248621
  outer loop
  vertex 14.3676 18.4831 4.38623
  vertex 13.5307 14.3864 1.73376
  vertex 13.7202 17.9142 1.95012
  endloop
 endfacet

 facet normal -0.740361 -0.135895 -0.658329
  outer loop
  vertex -17.6853 -4.05822 5.90257
  vertex -13.022 2.7667 -0.750594
  vertex -15.4493 -3.53916 3.28086
  endloop
 endfacet

 facet normal -0.82261 0.00782002 -0.568552
  outer loop
  vertex -13.022 2.7667 -0.750594
  vertex -17.6853 -4.05822 5.90257
  vertex -15.9582 12.962 3.63785
  endloop
 endfacet

 facet normal 0.511712 -0.272988 0.814634
  outer loop
  vertex 0.572692 -7.6869 24.5645
  vertex 10.0437 -13.251 16.7508
  vertex 6.77599 0.471524 23.4018
  endloop
 endfacet

 facet normal -0.911298 -0.330923 0.245001
  outer loop
  vertex -19.5542 19.7062 -0.783581
  vertex -18.9942 20.2955 2.09523
  vertex -19.454 21.71 2.29549
  endloop
 endfacet

 facet normal -0.855825 -0.420376 0.301409
  outer loop
  vertex -19.5542 19.7062 -0.783581
  vertex -19.454 21.71 2.29549
  vertex -20.5408 21.7621 -0.717845
  endloop
 endfacet

 facet normal -0.971222 -0.199741 0.129732
  outer loop
  vertex -16.7375 -4.11258 12.9139
  vertex -18.1209 2.7779 13.1666
  vertex -17.6853 -4.05822 5.90257
  endloop
 endfacet

 facet normal -0.9649 0.205979 0.162914
  outer loop
  vertex -18.5384 25.1832 -0.691267
  vertex -19.0082 23.0069 -0.722115
  vertex -18.617 22.5779 2.13711
  endloop
 endfacet

 facet normal -0.964988 0.205741 0.162691
  outer loop
  vertex -18.5384 25.1832 -0.691267
  vertex -18.617 22.5779 2.13711
  vertex -18.2926 24.0837 2.15764
  endloop
 endfacet

 facet normal -0.944543 -0.174485 -0.278198
  outer loop
  vertex -6.25943 -18.5033 13.7239
  vertex -3.38765 -27.3647 9.53139
  vertex -5.47369 -27.5542 16.7328
  endloop
 endfacet

 facet normal -0.780434 -0.451299 -0.432726
  outer loop
  vertex -1.11936 -34.6202 13.0073
  vertex -4.35757 -31.076 15.1512
  vertex -3.38765 -27.3647 9.53139
  endloop
 endfacet

 facet normal 0.19068 -0.130265 0.972971
  outer loop
  vertex 0.111674 -24.17 19.231
  vertex -3.51853 -31.911 18.906
  vertex -0.183518 -35.6287 17.7547
  endloop
 endfacet

 facet normal 0.607381 -0.742258 -0.283092
  outer loop
  vertex -10.8637 -18.4267 8.82228
  vertex -12.2634 -16.9841 2.03663
  vertex -8.40837 -15.2098 5.65567
  endloop
 endfacet

 facet normal -0.647454 0.534848 0.542901
  outer loop
  vertex -13.5591 26.3171 2.47579
  vertex -15.9516 21.616 4.25392
  vertex -10.7942 25.5384 6.54027
  endloop
 endfacet

 facet normal -0.0508601 0.0270039 -0.998341
  outer loop
  vertex -19.5542 19.7062 -0.783581
  vertex -19.0082 23.0069 -0.722115
  vertex -16.1891 18.5396 -0.986568
  endloop
 endfacet

 facet normal -0.0206809 0.0220347 -0.999543
  outer loop
  vertex -19.5542 19.7062 -0.783581
  vertex -20.5408 21.7621 -0.717845
  vertex -19.0082 23.0069 -0.722115
  endloop
 endfacet

 facet normal -0.741711 -0.670513 0.0166319
  outer loop
  vertex -0.183518 -35.6287 17.7547
  vertex -3.51853 -31.911 18.906
  vertex -4.35757 -31.076 15.1512
  endloop
 endfacet

 facet normal 0.69359 0.147455 0.705117
  outer loop
  vertex 18.4118 -13.9333 3.71424
  vertex 13.2537 -12.1147 8.40769
  vertex 10.7113 -15.6752 11.653
  endloop
 endfacet

 facet normal 0.810533 -0.134564 -0.570026
  outer loop
  vertex -16.1891 18.5396 -0.986568
  vertex -12.7652 25.7883 2.17085
  vertex -14.1073 17.6411 2.18577
  endloop
 endfacet

 facet normal 0.169794 -0.382106 -0.908386
  outer loop
  vertex 2.94732 -32.8415 13.0193
  vertex -1.11936 -34.6202 13.0073
  vertex -3.38765 -27.3647 9.53139
  endloop
 endfacet

 facet normal 0.954964 -0.25437 -0.152771
  outer loop
  vertex 4.24721 -31.3555 18.6705
  vertex 2.94732 -32.8415 13.0193
  vertex 3.9821 -27.2225 10.1318
  endloop
 endfacet

 facet normal 0.583985 0.513226 -0.628936
  outer loop
  vertex -12.3632 -14.5373 0.0580155
  vertex -15.7937 -10.411 0.239765
  vertex -10.7504 -11.7538 3.82695
  endloop
 endfacet

 facet normal 0.305582 0.298039 -0.904319
  outer loop
  vertex 13.059 29.8962 7.92512
  vertex 19.3226 21.564 7.29559
  vertex 14.5523 21.3615 5.6169
  endloop
 endfacet

 facet normal 0.611759 -0.359282 0.704747
  outer loop
  vertex 14.3676 18.4831 4.38623
  vertex 19.1066 19.3285 0.703459
  vertex 19.3416 19.9395 0.810952
  endloop
 endfacet

 facet normal 0.612374 -0.343687 0.711953
  outer loop
  vertex 14.3676 18.4831 4.38623
  vertex 19.3416 19.9395 0.810952
  vertex 14.5523 21.3615 5.6169
  endloop
 endfacet

 facet normal -0.630825 0.569726 -0.526756
  outer loop
  vertex 10.9185 -11.4903 3.74076
  vertex 10.4236 -9.92017 6.03155
  vertex 14.7875 -10.6469 0.0195941
  endloop
 endfacet

 facet normal 0.275832 0.960793 -0.0281651
  outer loop
  vertex -13.0836 -10.9654 7.87024
  vertex -10.7504 -11.7538 3.82695
  vertex -15.7937 -10.411 0.239765
  endloop
 endfacet

 facet normal 0.724399 0.0942275 -0.682911
  outer loop
  vertex 18.8887 1.91861 5.69703
  vertex 13.0692 3.43148 -0.267276
  vertex 13.5307 14.3864 1.73376
  endloop
 endfacet

 facet normal -0.985039 -0.110436 0.132292
  outer loop
  vertex -16.0596 -13.7032 9.95537
  vertex -16.7375 -4.11258 12.9139
  vertex -17.6853 -4.05822 5.90257
  endloop
 endfacet

 facet normal 0.0058405 -0.00222155 -0.999981
  outer loop
  vertex 19.6159 19.5812 -1.05531
  vertex 19.1146 23.0783 -1.06601
  vertex 20.5431 22.2382 -1.0558
  endloop
 endfacet

 facet normal 0.830261 -0.359627 0.425835
  outer loop
  vertex 10.4236 -9.92017 6.03155
  vertex 10.9185 -11.4903 3.74076
  vertex 14.3882 -5.01896 2.44094
  endloop
 endfacet

 facet normal 0.152942 0.251529 -0.955689
  outer loop
  vertex 0.239758 25.3945 2.50401
  vertex 13.5307 14.3864 1.73376
  vertex 0.126973 13.2047 -0.722298
  endloop
 endfacet

 facet normal -0.660517 0.173914 0.730392
  outer loop
  vertex -7.14408 14.3783 22.0537
  vertex -14.9391 16.9167 14.4001
  vertex -8.73418 7.07466 22.3548
  endloop
 endfacet

 facet normal 0.00431553 -0.191525 -0.981478
  outer loop
  vertex -3.38765 -27.3647 9.53139
  vertex -4.24352 -17.599 7.62195
  vertex 4.28159 -17.5094 7.64195
  endloop
 endfacet

 facet normal -0.855664 0.485799 0.178431
  outer loop
  vertex -0.20367 33.0023 7.2011
  vertex -0.146482 34.8401 2.47163
  vertex -4.0971 26.56 6.07011
  endloop
 endfacet

 facet normal 0.0162362 -0.696244 0.717621
  outer loop
  vertex 13.1584 -19.1486 0.188543
  vertex 16.135 -19.171 0.0994528
  vertex 14.9358 -17.1824 2.05589
  endloop
 endfacet

 facet normal 0.196358 -0.517535 0.832827
  outer loop
  vertex -15.4142 -17.7848 1.39195
  vertex -14.8862 -19.6797 0.089928
  vertex -12.4171 -18.5375 0.217567
  endloop
 endfacet

 facet normal 0.61009 -0.725996 -0.317363
  outer loop
  vertex 10.4236 -9.92017 6.03155
  vertex 14.3882 -5.01896 2.44094
  vertex 17.3091 -3.97429 5.66624
  endloop
 endfacet

 facet normal 0.0752782 -0.00250104 -0.997159
  outer loop
  vertex 17.1755 18.3916 -1.20065
  vertex 18.4799 25.175 -1.11918
  vertex 19.1146 23.0783 -1.06601
  endloop
 endfacet

 facet normal 0.508208 0.82776 0.237778
  outer loop
  vertex 13.2537 -12.1147 8.40769
  vertex 18.4118 -13.9333 3.71424
  vertex 14.7875 -10.6469 0.0195941
  endloop
 endfacet

 facet normal -0.927168 -0.351749 0.128963
  outer loop
  vertex -4.35757 -31.076 15.1512
  vertex -3.51853 -31.911 18.906
  vertex -5.47369 -27.5542 16.7328
  endloop
 endfacet

 facet normal -0.167685 0.291055 -0.941896
  outer loop
  vertex -16.8032 27.2188 8.12931
  vertex -10.7942 25.5384 6.54027
  vertex -14.6435 21.5985 6.00807
  endloop
 endfacet

 facet normal 0.838356 0.504609 0.206225
  outer loop
  vertex -0.146482 34.8401 2.47163
  vertex -0.20367 33.0023 7.2011
  vertex 3.91604 26.6661 5.95741
  endloop
 endfacet

 facet normal 0.592705 0.251303 -0.765211
  outer loop
  vertex -13.5591 26.3171 2.47579
  vertex -15.4215 20.8095 -0.775499
  vertex -17.307 25.4636 -0.707456
  endloop
 endfacet

 facet normal 0.123383 -0.439758 -0.889601
  outer loop
  vertex -10.8355 -15.7404 11.7234
  vertex -6.25943 -18.5033 13.7239
  vertex -11.7415 -18.6355 13.0289
  endloop
 endfacet

 facet normal 0.931736 0.0431177 -0.360568
  outer loop
  vertex 14.3676 18.4831 4.38623
  vertex 14.7148 14.3527 4.78956
  vertex 13.5307 14.3864 1.73376
  endloop
 endfacet

 facet normal -0.914446 -0.390671 0.10566
  outer loop
  vertex -18.6389 -14.8556 3.06592
  vertex -19.0994 -14.5906 0.0604114
  vertex -17.3161 -18.7372 0.162416
  endloop
 endfacet

 facet normal 0.188461 0.405846 -0.8943
  outer loop
  vertex 8.02557 24.7457 3.8503
  vertex 13.7202 17.9142 1.95012
  vertex 0.239758 25.3945 2.50401
  endloop
 endfacet

 facet normal -0.367874 0.193287 -0.909565
  outer loop
  vertex 17.1755 18.3916 -1.20065
  vertex 8.02557 24.7457 3.8503
  vertex 12.9142 26.5535 2.25725
  endloop
 endfacet

 facet normal -0.886517 -0.462696 -0.00034032
  outer loop
  vertex 17.1755 18.3916 -1.20065
  vertex 12.9142 26.5535 2.25725
  vertex 15.5566 21.4933 -1.11626
  endloop
 endfacet

 facet normal -0.171628 0.143183 0.974701
  outer loop
  vertex 0.0979876 12.2154 23.6467
  vertex 0.0281569 19.4793 22.5673
  vertex -7.14408 14.3783 22.0537
  endloop
 endfacet

 facet normal 0.22176 -0.0297178 0.974648
  outer loop
  vertex 0.572692 -7.6869 24.5645
  vertex 6.77599 0.471524 23.4018
  vertex 0.18263 2.58106 24.9663
  endloop
 endfacet

 facet normal -0.80757 -0.465854 -0.361678
  outer loop
  vertex 6.90995 -14.984 10.7049
  vertex 8.99611 -14.2717 5.12927
  vertex 11.6411 -16.3208 1.8628
  endloop
 endfacet

 facet normal 0.898382 -0.383754 -0.21364
  outer loop
  vertex 6.04204 -25.1233 15.0233
  vertex 4.24721 -31.3555 18.6705
  vertex 3.9821 -27.2225 10.1318
  endloop
 endfacet

 facet normal 0.973074 -0.163054 0.162909
  outer loop
  vertex 18.3559 5.6018 12.5662
  vertex 16.6269 -3.60669 13.6768
  vertex 18.8887 1.91861 5.69703
  endloop
 endfacet

 facet normal 0.961524 -0.258236 0.0937295
  outer loop
  vertex 16.6269 -3.60669 13.6768
  vertex 17.3091 -3.97429 5.66624
  vertex 18.8887 1.91861 5.69703
  endloop
 endfacet

 facet normal -0.0354798 -0.976372 -0.213163
  outer loop
  vertex 1.68216 -19.7088 17.9236
  vertex -4.23008 -19.3299 17.1719
  vertex -6.25943 -18.5033 13.7239
  endloop
 endfacet

 facet normal -0.0835834 -0.125213 0.988603
  outer loop
  vertex 4.24721 -31.3555 18.6705
  vertex 0.111674 -24.17 19.231
  vertex -0.183518 -35.6287 17.7547
  endloop
 endfacet

 facet normal -0.794384 0.153848 0.58761
  outer loop
  vertex -14.9391 16.9167 14.4001
  vertex -19.3778 20.095 7.56725
  vertex -17.8458 9.17424 12.4976
  endloop
 endfacet

 facet normal -0.71719 0.156699 -0.679031
  outer loop
  vertex 8.99611 -14.2717 5.12927
  vertex 10.9185 -11.4903 3.74076
  vertex 11.6411 -16.3208 1.8628
  endloop
 endfacet

 facet normal 0.945083 -0.0869189 -0.315059
  outer loop
  vertex 6.04204 -25.1233 15.0233
  vertex 4.28159 -17.5094 7.64195
  vertex 6.16748 -18.3778 13.5386
  endloop
 endfacet

 facet normal -0.761634 -0.175776 0.623712
  outer loop
  vertex -16.7375 -4.11258 12.9139
  vertex -11.4053 -1.45793 20.1734
  vertex -18.1209 2.7779 13.1666
  endloop
 endfacet

 facet normal 0.233191 -0.606903 0.759797
  outer loop
  vertex 14.9358 -17.1824 2.05589
  vertex 16.135 -19.171 0.0994528
  vertex 17.8411 -16.9074 1.38396
  endloop
 endfacet

 facet normal -0.129327 -0.618727 -0.774888
  outer loop
  vertex 11.2167 -18.838 13.0634
  vertex 6.16748 -18.3778 13.5386
  vertex 6.90995 -14.984 10.7049
  endloop
 endfacet

 facet normal 0.666724 -0.30796 0.678705
  outer loop
  vertex 11.2167 -18.838 13.0634
  vertex 15.9936 -14.1049 10.5184
  vertex 10.0437 -13.251 16.7508
  endloop
 endfacet

 facet normal 0.00822551 0.104627 -0.994478
  outer loop
  vertex 19.4603 17.32 -1.29449
  vertex 17.1755 18.3916 -1.20065
  vertex 19.6159 19.5812 -1.05531
  endloop
 endfacet

 facet normal -0.730802 -0.247852 0.636001
  outer loop
  vertex -10.6706 -12.7198 16.5309
  vertex -16.7375 -4.11258 12.9139
  vertex -16.0596 -13.7032 9.95537
  endloop
 endfacet

 facet normal -0.404203 0.52626 0.748111
  outer loop
  vertex -15.9516 21.616 4.25392
  vertex -18.617 22.5779 2.13711
  vertex -19.454 21.71 2.29549
  endloop
 endfacet

 facet normal -0.232909 -0.752583 0.615931
  outer loop
  vertex 11.6411 -16.3208 1.8628
  vertex 11.4632 -17.6055 0.22587
  vertex 14.9358 -17.1824 2.05589
  endloop
 endfacet

 facet normal -0.781852 -0.226739 0.580772
  outer loop
  vertex -15.9516 21.616 4.25392
  vertex -13.4702 15.6908 5.2811
  vertex -14.6435 21.5985 6.00807
  endloop
 endfacet

 facet normal -0.19007 0.280065 -0.940977
  outer loop
  vertex -8.54371 32.9429 8.86804
  vertex -0.20367 33.0023 7.2011
  vertex -4.0971 26.56 6.07011
  endloop
 endfacet

 facet normal 0.550973 -0.0283439 -0.834042
  outer loop
  vertex 18.8887 1.91861 5.69703
  vertex 13.5307 14.3864 1.73376
  vertex 19.6795 9.14368 5.97387
  endloop
 endfacet

 facet normal 0.202936 0.887712 -0.41326
  outer loop
  vertex 3.91604 26.6661 5.95741
  vertex 11.5559 25.1945 6.54805
  vertex 8.02557 24.7457 3.8503
  endloop
 endfacet

 facet normal 0.325202 0.615445 0.717963
  outer loop
  vertex 16.5064 27.1509 8.71697
  vertex 13.059 29.8962 7.92512
  vertex 6.13035 22.8107 17.1373
  endloop
 endfacet

 facet normal -0.40105 0.580809 0.708393
  outer loop
  vertex -5.39452 28.6911 13.3811
  vertex -13.0045 29.9286 8.05813
  vertex -16.8032 27.2188 8.12931
  endloop
 endfacet

 facet normal 0.0569638 0.00511123 -0.998363
  outer loop
  vertex 19.1146 23.0783 -1.06601
  vertex 19.6159 19.5812 -1.05531
  vertex 17.1755 18.3916 -1.20065
  endloop
 endfacet

 facet normal -0.377944 -0.75943 -0.529551
  outer loop
  vertex 19.4603 17.32 -1.29449
  vertex 13.7202 17.9142 1.95012
  vertex 17.1755 18.3916 -1.20065
  endloop
 endfacet

 facet normal 0.083414 -0.249858 -0.964683
  outer loop
  vertex -3.38765 -27.3647 9.53139
  vertex 4.28159 -17.5094 7.64195
  vertex 3.9821 -27.2225 10.1318
  endloop
 endfacet

 facet normal -0.431336 -0.400156 0.808594
  outer loop
  vertex -0.0979809 -17.1432 19.527
  vertex 0.572692 -7.6869 24.5645
  vertex -6.81689 -1.56857 23.6504
  endloop
 endfacet

 facet normal -0.253952 -0.193629 -0.947637
  outer loop
  vertex -14.1073 17.6411 2.18577
  vertex 0.126973 13.2047 -0.722298
  vertex -15.9582 12.962 3.63785
  endloop
 endfacet

 facet normal -0.961264 0.0692392 0.26679
  outer loop
  vertex -19.685 9.24886 5.8517
  vertex -18.1209 2.7779 13.1666
  vertex -17.8458 9.17424 12.4976
  endloop
 endfacet

 facet normal -0.310195 0.5735 0.758207
  outer loop
  vertex -1.64186 35.4163 9.82955
  vertex -5.39452 28.6911 13.3811
  vertex 0.0281569 19.4793 22.5673
  endloop
 endfacet

 facet normal 0.794293 0.126076 0.594309
  outer loop
  vertex 18.3559 5.6018 12.5662
  vertex 16.4761 17.0775 12.6441
  vertex 11.8613 8.6714 20.595
  endloop
 endfacet

 facet normal -0.702154 0.164305 -0.692809
  outer loop
  vertex 10.9185 -11.4903 3.74076
  vertex 14.7875 -10.6469 0.0195941
  vertex 11.6411 -16.3208 1.8628
  endloop
 endfacet

 facet normal -0.00639352 0.623921 0.781461
  outer loop
  vertex -1.64186 35.4163 9.82955
  vertex 0.0281569 19.4793 22.5673
  vertex 3.82328 34.8219 10.3488
  endloop
 endfacet

 facet normal 0.67768 0.725647 0.119111
  outer loop
  vertex 19.1146 23.0783 -1.06601
  vertex 19.1253 22.7338 0.972691
  vertex 19.9131 21.96 1.20408
  endloop
 endfacet

 facet normal 0.490854 0.837548 0.239951
  outer loop
  vertex 19.1146 23.0783 -1.06601
  vertex 19.9131 21.96 1.20408
  vertex 20.5431 22.2382 -1.0558
  endloop
 endfacet

 facet normal 0.433113 0.465105 0.772069
  outer loop
  vertex 7.10485 13.7429 22.0532
  vertex 6.13035 22.8107 17.1373
  vertex 0.0281569 19.4793 22.5673
  endloop
 endfacet

 facet normal 0.475029 0.487743 0.73243
  outer loop
  vertex 6.13035 22.8107 17.1373
  vertex 13.059 29.8962 7.92512
  vertex 8.23762 33.0007 8.9848
  endloop
 endfacet

 facet normal -0.036863 -0.992502 0.116536
  outer loop
  vertex 13.7202 17.9142 1.95012
  vertex 19.4603 17.32 -1.29449
  vertex 18.6702 17.6008 0.846858
  endloop
 endfacet

 facet normal -0.0103442 -0.973132 0.230015
  outer loop
  vertex 13.7202 17.9142 1.95012
  vertex 18.6702 17.6008 0.846858
  vertex 14.3676 18.4831 4.38623
  endloop
 endfacet

 facet normal 0.643614 -0.204239 0.737596
  outer loop
  vertex 6.77599 0.471524 23.4018
  vertex 10.0437 -13.251 16.7508
  vertex 16.6269 -3.60669 13.6768
  endloop
 endfacet

 facet normal 0.191691 0.134845 0.972148
  outer loop
  vertex 7.10485 13.7429 22.0532
  vertex 0.0979876 12.2154 23.6467
  vertex 0.18263 2.58106 24.9663
  endloop
 endfacet

 facet normal -0.603616 0.331991 0.724866
  outer loop
  vertex -16.8032 27.2188 8.12931
  vertex -14.9391 16.9167 14.4001
  vertex -7.14408 14.3783 22.0537
  endloop
 endfacet

 facet normal 0.523388 0.4482 -0.724694
  outer loop
  vertex 13.059 29.8962 7.92512
  vertex 16.5064 27.1509 8.71697
  vertex 19.3226 21.564 7.29559
  endloop
 endfacet

 facet normal 0.130284 0.777014 -0.615853
  outer loop
  vertex 3.82328 34.8219 10.3488
  vertex 8.23762 33.0007 8.9848
  vertex -0.20367 33.0023 7.2011
  endloop
 endfacet

 facet normal -0.731799 -0.244191 0.636271
  outer loop
  vertex -10.6706 -12.7198 16.5309
  vertex -16.0596 -13.7032 9.95537
  vertex -11.7415 -18.6355 13.0289
  endloop
 endfacet

 facet normal -0.241007 -0.831736 -0.500131
  outer loop
  vertex -0.189299 -16.9789 4.63703
  vertex -4.24352 -17.599 7.62195
  vertex -8.40837 -15.2098 5.65567
  endloop
 endfacet

 facet normal -0.278659 0.937442 0.20869
  outer loop
  vertex 12.9142 26.5535 2.25725
  vertex 8.02557 24.7457 3.8503
  vertex 11.5559 25.1945 6.54805
  endloop
 endfacet

 facet normal 0.683568 -0.247785 0.686541
  outer loop
  vertex 10.0437 -13.251 16.7508
  vertex 15.9936 -14.1049 10.5184
  vertex 16.6269 -3.60669 13.6768
  endloop
 endfacet

 facet normal -0.116584 0.255125 -0.959854
  outer loop
  vertex 0.126973 13.2047 -0.722298
  vertex -14.1073 17.6411 2.18577
  vertex 0.239758 25.3945 2.50401
  endloop
 endfacet

 facet normal -0.0526776 0.0217675 -0.998374
  outer loop
  vertex -19.4716 17.0745 -0.845316
  vertex -19.5542 19.7062 -0.783581
  vertex -16.1891 18.5396 -0.986568
  endloop
 endfacet

 facet normal 0.668245 0.0605026 -0.741476
  outer loop
  vertex -10.7504 -11.7538 3.82695
  vertex -8.40837 -15.2098 5.65567
  vertex -12.2634 -16.9841 2.03663
  endloop
 endfacet

 facet normal 0.0573543 -0.986133 -0.155731
  outer loop
  vertex 10.9523 -18.5143 9.02258
  vertex 14.9358 -17.1824 2.05589
  vertex 17.8411 -16.9074 1.38396
  endloop
 endfacet

 facet normal -0.764345 0.228669 0.602899
  outer loop
  vertex -19.3778 20.095 7.56725
  vertex -14.9391 16.9167 14.4001
  vertex -16.8032 27.2188 8.12931
  endloop
 endfacet

 facet normal -0.138861 -0.592349 0.793625
  outer loop
  vertex -4.23008 -19.3299 17.1719
  vertex 1.68216 -19.7088 17.9236
  vertex -0.0979809 -17.1432 19.527
  endloop
 endfacet

 facet normal 0.387156 -0.883413 -0.263991
  outer loop
  vertex -1.11936 -34.6202 13.0073
  vertex 2.94732 -32.8415 13.0193
  vertex -0.183518 -35.6287 17.7547
  endloop
 endfacet

 facet normal 0.121231 0.243116 -0.962392
  outer loop
  vertex 3.91604 26.6661 5.95741
  vertex 13.059 29.8962 7.92512
  vertex 11.5559 25.1945 6.54805
  endloop
 endfacet

 facet normal -0.880927 0.414047 -0.229199
  outer loop
  vertex 11.4632 -17.6055 0.22587
  vertex 11.6411 -16.3208 1.8628
  vertex 14.7875 -10.6469 0.0195941
  endloop
 endfacet

 facet normal -0.583413 -0.284146 0.760849
  outer loop
  vertex -10.6706 -12.7198 16.5309
  vertex -6.81689 -1.56857 23.6504
  vertex -11.4053 -1.45793 20.1734
  endloop
 endfacet

 facet normal 0.128725 -0.440845 -0.888305
  outer loop
  vertex -10.8355 -15.7404 11.7234
  vertex -11.7415 -18.6355 13.0289
  vertex -16.0596 -13.7032 9.95537
  endloop
 endfacet

 facet normal 0.337593 0.109193 -0.934937
  outer loop
  vertex 19.6795 9.14368 5.97387
  vertex 14.7148 14.3527 4.78956
  vertex 19.3226 21.564 7.29559
  endloop
 endfacet

 facet normal -0.14711 0.687096 -0.711518
  outer loop
  vertex -1.64186 35.4163 9.82955
  vertex -0.20367 33.0023 7.2011
  vertex -8.54371 32.9429 8.86804
  endloop
 endfacet

 facet normal 0.606538 -0.784901 0.126661
  outer loop
  vertex 4.28159 -17.5094 7.64195
  vertex 8.99611 -14.2717 5.12927
  vertex 6.90995 -14.984 10.7049
  endloop
 endfacet

 facet normal 0.932235 -0.116558 -0.342567
  outer loop
  vertex 3.9821 -27.2225 10.1318
  vertex 4.28159 -17.5094 7.64195
  vertex 6.04204 -25.1233 15.0233
  endloop
 endfacet

 facet normal -0.659365 0.147209 -0.73727
  outer loop
  vertex 12.9142 26.5535 2.25725
  vertex 16.5615 25.6531 -1.18439
  vertex 15.5566 21.4933 -1.11626
  endloop
 endfacet

 facet normal -0.616121 -0.312481 -0.723015
  outer loop
  vertex 13.7202 17.9142 1.95012
  vertex 8.02557 24.7457 3.8503
  vertex 17.1755 18.3916 -1.20065
  endloop
 endfacet

 facet normal 0.389125 0.188242 -0.901747
  outer loop
  vertex -14.6435 21.5985 6.00807
  vertex -13.4702 15.6908 5.2811
  vertex -15.9582 12.962 3.63785
  endloop
 endfacet

 facet normal -0.985772 -0.147828 0.0800052
  outer loop
  vertex -17.6853 -4.05822 5.90257
  vertex -18.1209 2.7779 13.1666
  vertex -19.685 9.24886 5.8517
  endloop
 endfacet

 facet normal 0.0807434 -0.467292 -0.880408
  outer loop
  vertex 3.9821 -27.2225 10.1318
  vertex 2.94732 -32.8415 13.0193
  vertex -3.38765 -27.3647 9.53139
  endloop
 endfacet

 facet normal 0.0107638 -0.98185 -0.189353
  outer loop
  vertex -4.24352 -17.599 7.62195
  vertex -0.189299 -16.9789 4.63703
  vertex 4.28159 -17.5094 7.64195
  endloop
 endfacet

 facet normal -0.694688 -0.666321 -0.27097
  outer loop
  vertex 11.6411 -16.3208 1.8628
  vertex 10.9523 -18.5143 9.02258
  vertex 6.90995 -14.984 10.7049
  endloop
 endfacet

 facet normal -0.510457 0.231042 0.828283
  outer loop
  vertex -6.25943 -18.5033 13.7239
  vertex -5.47369 -27.5542 16.7328
  vertex 0.111674 -24.17 19.231
  endloop
 endfacet

 facet normal -0.252336 0.320349 -0.913073
  outer loop
  vertex -15.9582 12.962 3.63785
  vertex 0.126973 13.2047 -0.722298
  vertex -13.022 2.7667 -0.750594
  endloop
 endfacet

 facet normal 0.597303 0.353171 0.720069
  outer loop
  vertex 11.8613 8.6714 20.595
  vertex 16.4761 17.0775 12.6441
  vertex 7.10485 13.7429 22.0532
  endloop
 endfacet

 facet normal 0.264992 -0.801683 -0.535802
  outer loop
  vertex 8.99611 -14.2717 5.12927
  vertex 4.28159 -17.5094 7.64195
  vertex -0.189299 -16.9789 4.63703
  endloop
 endfacet

 facet normal -0.719687 0.101419 0.686852
  outer loop
  vertex -8.73418 7.07466 22.3548
  vertex -14.9391 16.9167 14.4001
  vertex -17.8458 9.17424 12.4976
  endloop
 endfacet

 facet normal -0.643815 -0.558321 0.52324
  outer loop
  vertex -10.8637 -18.4267 8.82228
  vertex -10.8355 -15.7404 11.7234
  vertex -18.6389 -14.8556 3.06592
  endloop
 endfacet

 facet normal -0.246211 -0.453014 -0.856831
  outer loop
  vertex -15.4493 -3.53916 3.28086
  vertex -13.022 2.7667 -0.750594
  vertex 0.0101782 -5.72861 -0.0038445
  endloop
 endfacet

 facet normal 0.174343 -0.275737 -0.94529
  outer loop
  vertex 13.0692 3.43148 -0.267276
  vertex 14.3882 -5.01896 2.44094
  vertex 0.0101782 -5.72861 -0.0038445
  endloop
 endfacet

 facet normal 0.32295 -0.44261 -0.83654
  outer loop
  vertex 17.3091 -3.97429 5.66624
  vertex 15.9936 -14.1049 10.5184
  vertex 13.2537 -12.1147 8.40769
  endloop
 endfacet

 facet normal -0.917004 -0.394377 -0.0597561
  outer loop
  vertex -13.4702 15.6908 5.2811
  vertex -15.9516 21.616 4.25392
  vertex -14.1073 17.6411 2.18577
  endloop
 endfacet

 facet normal -0.165453 0.87737 -0.450386
  outer loop
  vertex -4.0971 26.56 6.07011
  vertex -7.9743 24.6697 3.81197
  vertex -10.7942 25.5384 6.54027
  endloop
 endfacet

 facet normal -0.719437 0.10278 0.686911
  outer loop
  vertex -18.1209 2.7779 13.1666
  vertex -8.73418 7.07466 22.3548
  vertex -17.8458 9.17424 12.4976
  endloop
 endfacet

 facet normal -0.398821 -0.391588 0.829217
  outer loop
  vertex -6.81689 -1.56857 23.6504
  vertex -10.6706 -12.7198 16.5309
  vertex -0.0979809 -17.1432 19.527
  endloop
 endfacet

 facet normal 0.142847 0.766671 -0.625948
  outer loop
  vertex -1.64186 35.4163 9.82955
  vertex 3.82328 34.8219 10.3488
  vertex -0.20367 33.0023 7.2011
  endloop
 endfacet

 facet normal -0.669937 -0.33932 0.660338
  outer loop
  vertex -10.7504 -11.7538 3.82695
  vertex -10.059 -9.60433 5.63295
  vertex -15.4493 -3.53916 3.28086
  endloop
 endfacet

 facet normal 0.707938 -0.689769 -0.1518
  outer loop
  vertex -7.13719 -14.9065 10.2056
  vertex -10.8637 -18.4267 8.82228
  vertex -8.40837 -15.2098 5.65567
  endloop
 endfacet

 facet normal 0.766344 0.501549 0.401453
  outer loop
  vertex 12.9142 26.5535 2.25725
  vertex 11.5559 25.1945 6.54805
  vertex 14.5523 21.3615 5.6169
  endloop
 endfacet

 facet normal 0.438064 0.504609 0.743956
  outer loop
  vertex 6.13035 22.8107 17.1373
  vertex 8.23762 33.0007 8.9848
  vertex 3.82328 34.8219 10.3488
  endloop
 endfacet

 facet normal -0.363163 -0.557078 0.746845
  outer loop
  vertex -19.4716 17.0745 -0.845316
  vertex -14.1073 17.6411 2.18577
  vertex -15.9516 21.616 4.25392
  endloop
 endfacet

 facet normal 0.606639 -0.753788 0.252573
  outer loop
  vertex -19.4716 17.0745 -0.845316
  vertex -15.9516 21.616 4.25392
  vertex -18.8802 18.5491 2.13491
  endloop
 endfacet

 facet normal -0.779409 0.445138 0.440879
  outer loop
  vertex -14.1073 17.6411 2.18577
  vertex -15.9582 12.962 3.63785
  vertex -13.4702 15.6908 5.2811
  endloop
 endfacet

 facet normal 0.2869 -0.923268 -0.255469
  outer loop
  vertex -12.2634 -16.9841 2.03663
  vertex -10.8637 -18.4267 8.82228
  vertex -15.4142 -17.7848 1.39195
  endloop
 endfacet

 facet normal 0.157945 -0.380996 -0.910986
  outer loop
  vertex 11.2167 -18.838 13.0634
  vertex 6.90995 -14.984 10.7049
  vertex 10.7113 -15.6752 11.653
  endloop
 endfacet

 facet normal 0.174337 -0.282917 -0.943167
  outer loop
  vertex 14.3882 -5.01896 2.44094
  vertex 10.9185 -11.4903 3.74076
  vertex 0.0101782 -5.72861 -0.0038445
  endloop
 endfacet

 facet normal -0.230195 -0.195056 -0.953396
  outer loop
  vertex -10.7504 -11.7538 3.82695
  vertex -15.4493 -3.53916 3.28086
  vertex 0.0101782 -5.72861 -0.0038445
  endloop
 endfacet

 facet normal -0.708596 0.0417451 0.704378
  outer loop
  vertex -11.4053 -1.45793 20.1734
  vertex -8.73418 7.07466 22.3548
  vertex -18.1209 2.7779 13.1666
  endloop
 endfacet

 facet normal 0.763339 -0.0658174 0.642636
  outer loop
  vertex 16.6269 -3.60669 13.6768
  vertex 18.3559 5.6018 12.5662
  vertex 11.8613 8.6714 20.595
  endloop
 endfacet

 facet normal 0.659891 -0.15779 0.734606
  outer loop
  vertex 6.77599 0.471524 23.4018
  vertex 16.6269 -3.60669 13.6768
  vertex 11.8613 8.6714 20.595
  endloop
 endfacet

 facet normal 0.882229 -0.383402 0.273266
  outer loop
  vertex 18.4118 -13.9333 3.71424
  vertex 17.8411 -16.9074 1.38396
  vertex 19.1739 -14.7604 0.0931887
  endloop
 endfacet

 facet normal 0.623815 -0.315565 0.715034
  outer loop
  vertex 14.5523 21.3615 5.6169
  vertex 19.3416 19.9395 0.810952
  vertex 19.9131 21.96 1.20408
  endloop
 endfacet

 facet normal -0.124856 -0.709187 -0.693877
  outer loop
  vertex -6.25943 -18.5033 13.7239
  vertex -10.8355 -15.7404 11.7234
  vertex -7.13719 -14.9065 10.2056
  endloop
 endfacet

 facet normal -0.160281 0.0363954 -0.9864
  outer loop
  vertex -7.9743 24.6697 3.81197
  vertex -5.14411 27.8713 3.47022
  vertex 0.239758 25.3945 2.50401
  endloop
 endfacet

 facet normal 0.172685 0.0292955 -0.984541
  outer loop
  vertex 0.239758 25.3945 2.50401
  vertex 5.12208 27.8726 3.43408
  vertex 8.02557 24.7457 3.8503
  endloop
 endfacet

 facet normal -0.654425 0.572668 0.49374
  outer loop
  vertex -15.9516 21.616 4.25392
  vertex -14.6435 21.5985 6.00807
  vertex -10.7942 25.5384 6.54027
  endloop
 endfacet

 facet normal 0.984124 -0.112952 0.136903
  outer loop
  vertex 18.3559 5.6018 12.5662
  vertex 18.8887 1.91861 5.69703
  vertex 19.6795 9.14368 5.97387
  endloop
 endfacet

 facet normal 0.588216 0.163384 0.792028
  outer loop
  vertex 6.04204 -25.1233 15.0233
  vertex 6.16748 -18.3778 13.5386
  vertex 0.111674 -24.17 19.231
  endloop
 endfacet

 facet normal 0.465122 0.853642 0.234428
  outer loop
  vertex 13.2537 -12.1147 8.40769
  vertex 14.7875 -10.6469 0.0195941
  vertex 10.4236 -9.92017 6.03155
  endloop
 endfacet

 facet normal 0.684798 -0.463165 0.562609
  outer loop
  vertex 10.9523 -18.5143 9.02258
  vertex 18.4118 -13.9333 3.71424
  vertex 10.7113 -15.6752 11.653
  endloop
 endfacet

 facet normal -0.311156 0.573734 0.757635
  outer loop
  vertex -8.54371 32.9429 8.86804
  vertex -5.39452 28.6911 13.3811
  vertex -1.64186 35.4163 9.82955
  endloop
 endfacet

 facet normal -0.563022 -0.77844 0.277554
  outer loop
  vertex -10.8637 -18.4267 8.82228
  vertex -18.6389 -14.8556 3.06592
  vertex -15.4142 -17.7848 1.39195
  endloop
 endfacet

 facet normal 0.7576 -0.199836 -0.621375
  outer loop
  vertex 17.3091 -3.97429 5.66624
  vertex 14.3882 -5.01896 2.44094
  vertex 18.8887 1.91861 5.69703
  endloop
 endfacet

 facet normal -0.706803 0.641735 0.297665
  outer loop
  vertex -13.0836 -10.9654 7.87024
  vertex -15.7937 -10.411 0.239765
  vertex -18.6389 -14.8556 3.06592
  endloop
 endfacet

 facet normal -0.559134 -0.802122 0.20969
  outer loop
  vertex -7.13719 -14.9065 10.2056
  vertex -8.40837 -15.2098 5.65567
  vertex -4.24352 -17.599 7.62195
  endloop
 endfacet

 facet normal 0.0559139 0.399218 -0.91515
  outer loop
  vertex 8.23762 33.0007 8.9848
  vertex 13.059 29.8962 7.92512
  vertex 3.91604 26.6661 5.95741
  endloop
 endfacet

 facet normal 0.358147 -0.303362 0.883008
  outer loop
  vertex 1.68216 -19.7088 17.9236
  vertex 10.0437 -13.251 16.7508
  vertex -0.0979809 -17.1432 19.527
  endloop
 endfacet

 facet normal -0.639472 -0.0287822 -0.768276
  outer loop
  vertex 0.239758 25.3945 2.50401
  vertex -4.0971 26.56 6.07011
  vertex -0.146482 34.8401 2.47163
  endloop
 endfacet

 facet normal -0.38606 0.381974 0.839674
  outer loop
  vertex 1.68216 -19.7088 17.9236
  vertex -6.25943 -18.5033 13.7239
  vertex 0.111674 -24.17 19.231
  endloop
 endfacet

 facet normal 0.196588 0.310375 -0.930065
  outer loop
  vertex -0.20367 33.0023 7.2011
  vertex 8.23762 33.0007 8.9848
  vertex 3.91604 26.6661 5.95741
  endloop
 endfacet

 facet normal -0.414809 0.507183 0.755447
  outer loop
  vertex -16.8032 27.2188 8.12931
  vertex -7.14408 14.3783 22.0537
  vertex 0.0281569 19.4793 22.5673
  endloop
 endfacet

 facet normal -0.192493 -0.37129 -0.908345
  outer loop
  vertex -8.40837 -15.2098 5.65567
  vertex 0.0101782 -5.72861 -0.0038445
  vertex -0.189299 -16.9789 4.63703
  endloop
 endfacet

 facet normal -0.224165 -0.925554 -0.305122
  outer loop
  vertex 10.9523 -18.5143 9.02258
  vertex 11.6411 -16.3208 1.8628
  vertex 14.9358 -17.1824 2.05589
  endloop
 endfacet

 facet normal 0.441175 -0.427974 0.788799
  outer loop
  vertex 11.2167 -18.838 13.0634
  vertex 10.0437 -13.251 16.7508
  vertex 1.68216 -19.7088 17.9236
  endloop
 endfacet

 facet normal 0.216901 0.916215 0.336902
  outer loop
  vertex 18.5832 24.3031 1.18538
  vertex 18.4799 25.175 -1.11918
  vertex 16.5615 25.6531 -1.18439
  endloop
 endfacet

 facet normal 0.641285 0.549115 0.535935
  outer loop
  vertex 16.5615 25.6531 -1.18439
  vertex 12.9142 26.5535 2.25725
  vertex 14.5523 21.3615 5.6169
  endloop
 endfacet

 facet normal -0.0454213 0.850841 0.523456
  outer loop
  vertex 16.5615 25.6531 -1.18439
  vertex 14.5523 21.3615 5.6169
  vertex 18.5832 24.3031 1.18538
  endloop
 endfacet

 facet normal 0.945436 -0.180685 -0.271114
  outer loop
  vertex -12.2634 -16.9841 2.03663
  vertex -12.3632 -14.5373 0.0580155
  vertex -10.7504 -11.7538 3.82695
  endloop
 endfacet

 facet normal 0.704596 -0.0404232 0.708456
  outer loop
  vertex 6.16748 -18.3778 13.5386
  vertex 1.68216 -19.7088 17.9236
  vertex 0.111674 -24.17 19.231
  endloop
 endfacet

 facet normal -0.604124 -0.0145785 0.796757
  outer loop
  vertex -8.73418 7.07466 22.3548
  vertex -11.4053 -1.45793 20.1734
  vertex -6.81689 -1.56857 23.6504
  endloop
 endfacet

 facet normal 0.312465 -0.0532093 -0.948438
  outer loop
  vertex -12.7652 25.7883 2.17085
  vertex -7.9743 24.6697 3.81197
  vertex -14.1073 17.6411 2.18577
  endloop
 endfacet

 facet normal 0.35182 0.804377 -0.478749
  outer loop
  vertex -13.5591 26.3171 2.47579
  vertex -7.9743 24.6697 3.81197
  vertex -12.7652 25.7883 2.17085
  endloop
 endfacet

 facet normal 0.405664 -0.672633 0.618871
  outer loop
  vertex -10.8637 -18.4267 8.82228
  vertex -7.13719 -14.9065 10.2056
  vertex -10.8355 -15.7404 11.7234
  endloop
 endfacet

 facet normal 0.764316 0.232229 0.601574
  outer loop
  vertex 19.3226 21.564 7.29559
  vertex 16.5064 27.1509 8.71697
  vertex 16.4761 17.0775 12.6441
  endloop
 endfacet

 facet normal 0.0227986 -0.621298 -0.783242
  outer loop
  vertex -10.8355 -15.7404 11.7234
  vertex -16.0596 -13.7032 9.95537
  vertex -13.0836 -10.9654 7.87024
  endloop
 endfacet

 facet normal -0.0369019 0.30989 -0.950056
  outer loop
  vertex -13.0045 29.9286 8.05813
  vertex -8.54371 32.9429 8.86804
  vertex -10.7942 25.5384 6.54027
  endloop
 endfacet

 facet normal -0.944555 -0.174415 -0.2782
  outer loop
  vertex -4.35757 -31.076 15.1512
  vertex -5.47369 -27.5542 16.7328
  vertex -3.38765 -27.3647 9.53139
  endloop
 endfacet

 facet normal 0.896409 -0.270477 -0.351131
  outer loop
  vertex -16.1891 18.5396 -0.986568
  vertex -15.4215 20.8095 -0.775499
  vertex -12.7652 25.7883 2.17085
  endloop
 endfacet

 facet normal 0.00638421 0.506751 -0.862069
  outer loop
  vertex -15.4215 20.8095 -0.775499
  vertex -13.5591 26.3171 2.47579
  vertex -12.7652 25.7883 2.17085
  endloop
 endfacet

 facet normal -0.12041 -0.908977 -0.399077
  outer loop
  vertex 6.16748 -18.3778 13.5386
  vertex 11.2167 -18.838 13.0634
  vertex 1.68216 -19.7088 17.9236
  endloop
 endfacet

 facet normal 0.345643 -0.818611 -0.458701
  outer loop
  vertex -14.1073 17.6411 2.18577
  vertex -19.4716 17.0745 -0.845316
  vertex -16.1891 18.5396 -0.986568
  endloop
 endfacet

 facet normal -0.377804 -0.434819 0.817433
  outer loop
  vertex 13.1584 -19.1486 0.188543
  vertex 14.9358 -17.1824 2.05589
  vertex 11.4632 -17.6055 0.22587
  endloop
 endfacet

 facet normal 0.695493 -0.118568 -0.708683
  outer loop
  vertex 14.3882 -5.01896 2.44094
  vertex 13.0692 3.43148 -0.267276
  vertex 18.8887 1.91861 5.69703
  endloop
 endfacet

 facet normal 0.325146 0.118293 -0.938236
  outer loop
  vertex 19.3226 21.564 7.29559
  vertex 14.7148 14.3527 4.78956
  vertex 14.5523 21.3615 5.6169
  endloop
 endfacet

 facet normal -0.605696 0.141017 -0.783101
  outer loop
  vertex -19.3778 20.095 7.56725
  vertex -15.9582 12.962 3.63785
  vertex -19.685 9.24886 5.8517
  endloop
 endfacet

 facet normal -0.497645 0.197925 0.844497
  outer loop
  vertex 0.111674 -24.17 19.231
  vertex -5.47369 -27.5542 16.7328
  vertex -3.51853 -31.911 18.906
  endloop
 endfacet

 facet normal 0.585209 0.277382 0.761964
  outer loop
  vertex 4.24721 -31.3555 18.6705
  vertex 6.04204 -25.1233 15.0233
  vertex 0.111674 -24.17 19.231
  endloop
 endfacet

 facet normal 0.997387 -0.0162472 -0.0703907
  outer loop
  vertex -12.2634 -16.9841 2.03663
  vertex -12.4171 -18.5375 0.217567
  vertex -12.3632 -14.5373 0.0580155
  endloop
 endfacet

 facet normal -0.292429 -0.663171 0.688977
  outer loop
  vertex 6.90995 -14.984 10.7049
  vertex 10.9523 -18.5143 9.02258
  vertex 10.7113 -15.6752 11.653
  endloop
 endfacet

 facet normal 0.960984 0.0543011 -0.271222
  outer loop
  vertex 14.3676 18.4831 4.38623
  vertex 14.5523 21.3615 5.6169
  vertex 14.7148 14.3527 4.78956
  endloop
 endfacet

 facet normal -0.176173 -0.627412 0.758497
  outer loop
  vertex -15.4142 -17.7848 1.39195
  vertex -18.6389 -14.8556 3.06592
  vertex -17.3161 -18.7372 0.162416
  endloop
 endfacet

 facet normal -0.236656 0.0924816 0.967182
  outer loop
  vertex 0.18263 2.58106 24.9663
  vertex -8.73418 7.07466 22.3548
  vertex -6.81689 -1.56857 23.6504
  endloop
 endfacet

 facet normal -0.472923 -0.383881 0.793082
  outer loop
  vertex -10.6706 -12.7198 16.5309
  vertex -11.7415 -18.6355 13.0289
  vertex -4.23008 -19.3299 17.1719
  endloop
 endfacet

 facet normal -0.454042 0.468281 0.757996
  outer loop
  vertex -5.39452 28.6911 13.3811
  vertex -8.54371 32.9429 8.86804
  vertex -13.0045 29.9286 8.05813
  endloop
 endfacet

 facet normal 0.68327 -0.527056 0.505326
  outer loop
  vertex 17.8411 -16.9074 1.38396
  vertex 18.4118 -13.9333 3.71424
  vertex 10.9523 -18.5143 9.02258
  endloop
 endfacet

 facet normal -0.615012 0.532839 0.581242
  outer loop
  vertex -15.9516 21.616 4.25392
  vertex -13.5591 26.3171 2.47579
  vertex -17.307 25.4636 -0.707456
  endloop
 endfacet

 facet normal -0.201872 0.907741 0.367769
  outer loop
  vertex -17.307 25.4636 -0.707456
  vertex -18.5384 25.1832 -0.691267
  vertex -18.2926 24.0837 2.15764
  endloop
 endfacet

 facet normal 0.371427 0.780087 0.503494
  outer loop
  vertex -17.307 25.4636 -0.707456
  vertex -18.2926 24.0837 2.15764
  vertex -15.9516 21.616 4.25392
  endloop
 endfacet

 facet normal 0.62838 0.280916 0.725414
  outer loop
  vertex 16.4761 17.0775 12.6441
  vertex 16.5064 27.1509 8.71697
  vertex 7.10485 13.7429 22.0532
  endloop
 endfacet

 facet normal -0.737656 -0.675174 0.00197992
  outer loop
  vertex -1.11936 -34.6202 13.0073
  vertex -0.183518 -35.6287 17.7547
  vertex -4.35757 -31.076 15.1512
  endloop
 endfacet

 facet normal 0.0615341 -0.76157 0.645154
  outer loop
  vertex -12.4171 -18.5375 0.217567
  vertex -12.2634 -16.9841 2.03663
  vertex -15.4142 -17.7848 1.39195
  endloop
 endfacet

 facet normal -0.217486 0.130584 0.967289
  outer loop
  vertex 0.0979876 12.2154 23.6467
  vertex -8.73418 7.07466 22.3548
  vertex 0.18263 2.58106 24.9663
  endloop
 endfacet

 facet normal -0.00683878 0.0615796 -0.998079
  outer loop
  vertex 0.239758 25.3945 2.50401
  vertex 13.7202 17.9142 1.95012
  vertex 13.5307 14.3864 1.73376
  endloop
 endfacet

 facet normal 0.819814 -0.564991 -0.0932178
  outer loop
  vertex 16.135 -19.171 0.0994528
  vertex 19.1739 -14.7604 0.0931887
  vertex 17.8411 -16.9074 1.38396
  endloop
 endfacet

 facet normal 0.679789 0.0252846 -0.732972
  outer loop
  vertex -0.146482 34.8401 2.47163
  vertex 3.91604 26.6661 5.95741
  vertex 0.239758 25.3945 2.50401
  endloop
 endfacet

 facet normal -0.455522 -0.0718446 -0.887321
  outer loop
  vertex -17.6853 -4.05822 5.90257
  vertex -19.685 9.24886 5.8517
  vertex -15.9582 12.962 3.63785
  endloop
 endfacet

 facet normal 0.0567103 -0.962807 -0.26417
  outer loop
  vertex -4.23008 -19.3299 17.1719
  vertex -11.7415 -18.6355 13.0289
  vertex -6.25943 -18.5033 13.7239
  endloop
 endfacet

 facet normal 0.949591 0.153693 0.27323
  outer loop
  vertex 19.6795 9.14368 5.97387
  vertex 16.4761 17.0775 12.6441
  vertex 18.3559 5.6018 12.5662
  endloop
 endfacet

 facet normal -0.77618 0.606487 0.172388
  outer loop
  vertex -19.0994 -14.5906 0.0604114
  vertex -18.6389 -14.8556 3.06592
  vertex -15.7937 -10.411 0.239765
  endloop
 endfacet

 facet normal 0.257491 0.0913761 0.96195
  outer loop
  vertex 6.77599 0.471524 23.4018
  vertex 7.10485 13.7429 22.0532
  vertex 0.18263 2.58106 24.9663
  endloop
 endfacet

 facet normal 0.0513197 -0.692519 -0.719571
  outer loop
  vertex 13.2537 -12.1147 8.40769
  vertex 15.9936 -14.1049 10.5184
  vertex 10.7113 -15.6752 11.653
  endloop
 endfacet

 facet normal 0.684078 0.729061 -0.0225384
  outer loop
  vertex 14.7875 -10.6469 0.0195941
  vertex 18.4118 -13.9333 3.71424
  vertex 19.1739 -14.7604 0.0931887
  endloop
 endfacet

 facet normal -0.116082 0.329814 -0.936882
  outer loop
  vertex -10.7942 25.5384 6.54027
  vertex -8.54371 32.9429 8.86804
  vertex -4.0971 26.56 6.07011
  endloop
 endfacet

 facet normal -0.630472 0.608124 -0.482379
  outer loop
  vertex -10.7504 -11.7538 3.82695
  vertex -13.0836 -10.9654 7.87024
  vertex -10.059 -9.60433 5.63295
  endloop
 endfacet

 facet normal -0.0300196 -0.0141092 -0.99945
  outer loop
  vertex 14.7875 -10.6469 0.0195941
  vertex 16.135 -19.171 0.0994528
  vertex 13.1584 -19.1486 0.188543
  endloop
 endfacet

 facet normal -0.0341284 -0.0133195 -0.999329
  outer loop
  vertex 14.7875 -10.6469 0.0195941
  vertex 13.1584 -19.1486 0.188543
  vertex 11.4632 -17.6055 0.22587
  endloop
 endfacet

 facet normal 0.00938229 -0.00788463 -0.999925
  outer loop
  vertex 16.135 -19.171 0.0994528
  vertex 14.7875 -10.6469 0.0195941
  vertex 19.1739 -14.7604 0.0931887
  endloop
 endfacet

 facet normal 0.00646797 -0.0379583 -0.999258
  outer loop
  vertex 0.126973 13.2047 -0.722298
  vertex 13.0692 3.43148 -0.267276
  vertex 0.0101782 -5.72861 -0.0038445
  endloop
 endfacet

 facet normal 0.0323931 -0.0380989 -0.998749
  outer loop
  vertex -13.022 2.7667 -0.750594
  vertex 0.126973 13.2047 -0.722298
  vertex 0.0101782 -5.72861 -0.0038445
  endloop
 endfacet

 facet normal -0.000698874 0.0434241 -0.999057
  outer loop
  vertex -15.7937 -10.411 0.239765
  vertex -12.3632 -14.5373 0.0580155
  vertex -19.0994 -14.5906 0.0604114
  endloop
 endfacet

 facet normal -0.0471555 -0.0448276 -0.997881
  outer loop
  vertex -14.8862 -19.6797 0.089928
  vertex -17.3161 -18.7372 0.162416
  vertex -19.0994 -14.5906 0.0604114
  endloop
 endfacet

 facet normal -0.000307767 -0.00605469 -0.999982
  outer loop
  vertex -14.8862 -19.6797 0.089928
  vertex -19.0994 -14.5906 0.0604114
  vertex -12.3632 -14.5373 0.0580155
  endloop
 endfacet

 facet normal 0.0703524 -0.0407023 -0.996691
  outer loop
  vertex -12.4171 -18.5375 0.217567
  vertex -14.8862 -19.6797 0.089928
  vertex -12.3632 -14.5373 0.0580155
  endloop
 endfacet

 facet normal -0.573109 -0.0187728 0.819264
  outer loop
  vertex -18.9942 20.2955 2.09523
  vertex -18.8802 18.5491 2.13491
  vertex -15.9516 21.616 4.25392
  endloop
 endfacet

 facet normal -0.687103 0.698822 0.198842
  outer loop
  vertex -19.454 21.71 2.29549
  vertex -18.617 22.5779 2.13711
  vertex -19.0082 23.0069 -0.722115
  endloop
 endfacet

 facet normal -0.612543 0.755006 0.234004
  outer loop
  vertex -19.454 21.71 2.29549
  vertex -19.0082 23.0069 -0.722115
  vertex -20.5408 21.7621 -0.717845
  endloop
 endfacet

 facet normal -0.591514 0.116595 0.79782
  outer loop
  vertex -18.2926 24.0837 2.15764
  vertex -18.617 22.5779 2.13711
  vertex -15.9516 21.616 4.25392
  endloop
 endfacet

 facet normal -0.475092 -0.272878 0.836556
  outer loop
  vertex -19.454 21.71 2.29549
  vertex -18.9942 20.2955 2.09523
  vertex -15.9516 21.616 4.25392
  endloop
 endfacet

 facet normal 0.9461 0.320121 0.0491651
  outer loop
  vertex 18.5832 24.3031 1.18538
  vertex 19.1253 22.7338 0.972691
  vertex 19.1146 23.0783 -1.06601
  endloop
 endfacet

 facet normal 0.954472 0.290637 0.0671793
  outer loop
  vertex 18.5832 24.3031 1.18538
  vertex 19.1146 23.0783 -1.06601
  vertex 18.4799 25.175 -1.11918
  endloop
 endfacet

 facet normal 0.62121 -0.0923314 0.778186
  outer loop
  vertex 18.6702 17.6008 0.846858
  vertex 19.1066 19.3285 0.703459
  vertex 14.3676 18.4831 4.38623
  endloop
 endfacet

 facet normal 0.444473 0.640008 0.626764
  outer loop
  vertex 19.9131 21.96 1.20408
  vertex 19.1253 22.7338 0.972691
  vertex 14.5523 21.3615 5.6169
  endloop
 endfacet

 facet normal 0.90068 -0.38263 0.205841
  outer loop
  vertex 19.3416 19.9395 0.810952
  vertex 19.1066 19.3285 0.703459
  vertex 19.6159 19.5812 -1.05531
  endloop
 endfacet

 facet normal 0.933156 -0.301908 0.195118
  outer loop
  vertex 19.9131 21.96 1.20408
  vertex 19.3416 19.9395 0.810952
  vertex 19.6159 19.5812 -1.05531
  endloop
 endfacet

 facet normal 0.921608 -0.321566 0.217336
  outer loop
  vertex 19.9131 21.96 1.20408
  vertex 19.6159 19.5812 -1.05531
  vertex 20.5431 22.2382 -1.0558
  endloop
 endfacet

 facet normal 0.0281915 -0.0231774 -0.999334
  outer loop
  vertex 15.5566 21.4933 -1.11626
  vertex 16.5615 25.6531 -1.18439
  vertex 18.4799 25.175 -1.11918
  endloop
 endfacet

 facet normal -0.0212693 0.0160956 -0.999644
  outer loop
  vertex 15.5566 21.4933 -1.11626
  vertex 18.4799 25.175 -1.11918
  vertex 17.1755 18.3916 -1.20065
  endloop
 endfacet

 facet normal 0.104682 0.0569246 -0.992875
  outer loop
  vertex -17.307 25.4636 -0.707456
  vertex -15.4215 20.8095 -0.775499
  vertex -16.1891 18.5396 -0.986568
  endloop
 endfacet

 facet normal -0.0215145 0.0368005 -0.999091
  outer loop
  vertex -17.307 25.4636 -0.707456
  vertex -16.1891 18.5396 -0.986568
  vertex -18.5384 25.1832 -0.691267
  endloop
 endfacet

endsolid AssimpScene
